SplineFontDB: 3.0
FontName: DOF-2-Extended
FullName: DOF-2-Extended
FamilyName: DOF-2
Weight: Extended

StartChar: exclam
Encoding: 33 33 1
Width: 506
VWidth: 910
Flags: HW
LayerCount: 2
Fore
SplineSet
243 817 m 0
 266 823 289 809 294 786 c 0
 295 782 295 699 295 476 c 0
 295 220 295 170 294 165 c 0
 290 153 281 142 270 137 c 0
 265 134 264 135 254 135 c 0
 243 135 242 134 237 137 c 0
 226 142 217 153 213 165 c 0
 212 170 212 220 212 476 c 0
 212 748 212 782 214 787 c 0
 218 802 228 813 243 817 c 0
242 81 m 0
 268 88 295 68 295 42 c 0
 295 23 282 7 263 2 c 0
 234 -6 206 20 212 50 c 0
 216 65 227 77 242 81 c 0
EndSplineSet
EndChar

StartChar: quotedbl
Encoding: 34 34 2
Width: 506
VWidth: 910
Flags: HW
LayerCount: 2
Fore
SplineSet
185 817 m 0
 208 823 231 809 236 786 c 0
 237 780 237 573 236 567 c 0
 234 560 229 550 224 545 c 0
 221 543 216 540 212 538 c 0
 206 535 205 535 196 535 c 0
 186 535 184 535 178 538 c 0
 174 540 170 543 167 545 c 0
 162 550 157 560 155 567 c 0
 154 571 154 603 154 677 c 0
 154 769 154 782 156 787 c 0
 160 802 170 813 185 817 c 0
300 817 m 0
 323 823 346 809 351 786 c 0
 352 780 352 573 351 567 c 0
 349 560 345 550 340 545 c 0
 337 543 332 540 328 538 c 0
 322 535 320 535 311 535 c 0
 301 535 300 535 294 538 c 0
 290 540 285 543 282 545 c 0
 277 550 272 560 270 567 c 0
 269 571 269 603 269 677 c 0
 269 769 269 782 271 787 c 0
 275 802 285 813 300 817 c 0
EndSplineSet
EndChar

StartChar: numbersign
Encoding: 35 35 3
Width: 1011
VWidth: 910
Flags: HW
LayerCount: 2
Fore
SplineSet
408 613 m 0
 427 618 448 608 456 590 c 0
 459 585 460 584 460 573 c 2
 460 562 l 1
 441 526 l 2
 431 506 419 482 414 471 c 2
 405 451 l 1
 577 451 l 1
 748 452 l 1
 784 524 l 2
 823 604 823 603 835 609 c 0
 843 614 850 614 857 614 c 0
 874 612 887 602 893 586 c 0
 896 579 896 567 893 560 c 0
 892 557 880 531 866 503 c 2
 840 452 l 1
 884 451 l 2
 912 451 929 451 931 450 c 0
 948 444 960 428 960 411 c 0
 960 392 947 375 929 370 c 0
 925 369 911 369 862 369 c 2
 799 369 l 1
 769 308 l 1
 739 247 l 1
 783 246 l 2
 826 246 827 245 832 243 c 0
 846 238 854 229 857 214 c 0
 863 193 850 170 827 165 c 0
 822 163 813 163 760 163 c 2
 698 163 l 1
 683 131 l 2
 625 12 627 17 622 12 c 0
 601 -8 567 -1 555 25 c 0
 552 30 553 31 553 42 c 2
 553 53 l 1
 570 88 l 2
 580 108 592 133 597 144 c 2
 606 163 l 1
 434 163 l 1
 263 163 l 1
 228 91 l 2
 189 10 189 11 177 5 c 0
 169 0 162 0 155 0 c 0
 138 2 124 12 118 28 c 0
 115 35 115 48 118 55 c 0
 119 58 132 83 146 111 c 2
 171 163 l 1
 127 163 l 2
 99 163 82 164 80 165 c 0
 63 171 51 187 51 205 c 0
 51 223 64 240 83 245 c 0
 86 246 100 246 149 246 c 2
 212 246 l 1
 242 307 l 1
 272 369 l 1
 228 369 l 2
 185 369 184 369 179 371 c 0
 165 376 157 385 154 400 c 0
 148 421 161 445 184 450 c 0
 189 452 198 451 251 451 c 2
 313 451 l 1
 329 483 l 2
 387 602 385 598 390 603 c 0
 395 608 401 611 408 613 c 0
705 362 m 2
 707 369 l 1
 535 369 l 1
 364 369 l 1
 360 361 l 2
 358 356 347 333 334 308 c 0
 321 282 310 258 308 253 c 2
 304 246 l 1
 476 246 l 1
 647 247 l 1
 674 301 l 2
 689 331 703 358 705 362 c 2
EndSplineSet
EndChar

StartChar: dollar
Encoding: 36 36 4
Width: 910
VWidth: 910
Flags: HW
LayerCount: 2
Fore
SplineSet
445 817 m 0
 468 823 491 809 496 786 c 0
 497 783 497 772 497 757 c 2
 497 734 l 1
 511 734 l 2
 531 734 584 732 603 731 c 0
 650 728 688 722 716 715 c 0
 762 702 795 672 806 632 c 0
 809 621 810 602 807 594 c 0
 802 583 794 574 782 569 c 0
 776 566 762 566 755 568 c 0
 744 573 734 581 729 593 c 0
 728 596 727 601 726 606 c 0
 726 611 726 614 724 616 c 0
 719 624 707 631 693 635 c 0
 660 644 610 649 528 651 c 2
 497 651 l 1
 497 553 l 1
 497 454 l 1
 508 454 l 2
 533 456 586 456 603 455 c 0
 664 451 704 441 738 418 c 0
 776 393 799 356 807 304 c 0
 809 291 810 260 808 248 c 0
 803 196 781 155 745 130 c 0
 714 108 658 93 581 88 c 0
 566 87 519 86 505 86 c 2
 497 86 l 1
 497 62 l 2
 497 47 497 36 496 33 c 0
 492 15 475 0 456 0 c 0
 437 0 421 13 416 32 c 0
 414 36 414 42 414 61 c 2
 414 86 l 1
 380 86 l 2
 293 88 241 92 199 103 c 0
 151 115 117 147 105 188 c 0
 102 199 101 217 104 225 c 0
 109 236 117 245 129 250 c 0
 135 253 150 253 157 251 c 0
 168 246 177 238 182 226 c 0
 183 223 184 218 185 213 c 0
 186 205 188 201 194 196 c 0
 205 187 222 182 258 177 c 0
 289 172 326 170 383 168 c 2
 414 168 l 1
 414 267 l 1
 414 366 l 1
 409 366 l 2
 397 364 359 363 338 363 c 0
 259 363 206 375 167 401 c 0
 129 426 105 463 97 516 c 0
 95 528 94 559 96 571 c 0
 102 623 126 665 163 690 c 0
 190 709 238 723 300 728 c 0
 324 731 339 732 377 733 c 2
 414 734 l 1
 414 758 l 2
 414 777 414 783 416 787 c 0
 420 802 430 813 445 817 c 0
414 550 m 1
 414 651 l 1
 402 651 l 2
 310 650 250 640 216 625 c 0
 201 618 190 604 184 585 c 0
 175 557 178 515 192 492 c 0
 209 462 249 448 324 446 c 0
 346 446 386 447 407 449 c 2
 414 449 l 1
 414 550 l 1
617 371 m 0
 596 373 515 373 500 370 c 2
 497 370 l 1
 497 269 l 1
 497 168 l 1
 503 168 l 2
 515 168 563 170 577 171 c 0
 633 175 677 185 696 198 c 0
 718 213 729 245 725 284 c 0
 722 317 713 336 692 350 c 0
 676 361 652 366 617 371 c 0
EndSplineSet
EndChar

StartChar: percent
Encoding: 37 37 5
Width: 1112
VWidth: 910
Flags: HW
LayerCount: 2
Fore
SplineSet
215 824 m 0
 217 825 238 825 262 824 c 0
 312 824 324 822 350 816 c 0
 400 803 435 770 450 722 c 0
 453 712 456 695 457 684 c 0
 459 671 459 596 458 569 c 0
 455 505 444 462 421 429 c 0
 396 391 359 370 300 362 c 0
 282 360 227 360 209 362 c 0
 166 367 136 380 111 401 c 0
 89 420 72 451 63 487 c 0
 54 522 51 556 51 623 c 0
 51 673 52 689 58 714 c 0
 73 772 113 809 177 820 c 0
 185 822 200 823 215 824 c 0
308 740 m 0
 298 741 227 742 213 741 c 0
 182 739 165 733 153 721 c 0
 143 711 139 698 136 675 c 0
 134 660 134 578 136 559 c 0
 141 501 151 473 173 459 c 0
 189 448 217 443 255 443 c 0
 302 443 332 451 347 467 c 0
 359 480 367 504 371 535 c 0
 375 558 375 572 375 618 c 0
 376 667 375 679 370 694 c 0
 364 722 347 735 308 740 c 0
1009 817 m 0
 1034 824 1061 804 1061 778 c 0
 1061 767 1056 757 1050 750 c 0
 1046 745 122 11 115 6 c 0
 107 1 93 -1 84 1 c 0
 53 8 40 45 62 69 c 0
 67 74 995 811 1000 814 c 0
 1003 816 1006 817 1009 817 c 0
825 458 m 0
 840 459 890 458 904 457 c 0
 961 450 999 428 1024 391 c 0
 1046 357 1057 314 1060 253 c 0
 1061 228 1061 163 1060 147 c 0
 1056 98 1044 65 1018 39 c 0
 993 14 961 1 914 -4 c 0
 899 -6 817 -6 802 -4 c 0
 755 1 722 14 698 39 c 0
 677 59 665 82 659 117 c 0
 654 135 655 143 654 186 c 0
 654 230 654 263 657 284 c 0
 670 398 719 449 825 458 c 0
884 375 m 0
 849 378 810 375 790 368 c 0
 770 361 759 349 750 326 c 0
 740 300 737 269 737 201 c 0
 736 152 737 140 742 125 c 0
 747 101 761 88 787 83 c 0
 802 79 811 78 846 77 c 0
 917 76 942 81 959 98 c 0
 969 108 974 121 977 145 c 0
 979 159 979 241 977 260 c 0
 972 318 961 346 939 360 c 0
 926 368 909 373 884 375 c 0
EndSplineSet
EndChar

StartChar: ampersand
Encoding: 38 38 6
Width: 910
VWidth: 910
Flags: HW
LayerCount: 2
Fore
SplineSet
393 824 m 0
 411 825 530 824 542 823 c 0
 599 818 637 809 670 792 c 0
 685 785 696 777 707 765 c 0
 742 731 758 680 758 609 c 0
 758 582 755 561 748 539 c 0
 727 475 676 432 591 407 c 0
 553 396 516 390 423 377 c 0
 404 374 389 372 388 371 c 0
 385 370 449 309 491 274 c 0
 567 209 649 150 715 118 c 2
 725 113 l 1
 730 118 l 2
 743 132 749 151 751 176 c 0
 752 190 754 195 759 203 c 0
 764 208 772 215 779 218 c 0
 783 219 787 218 793 218 c 0
 802 218 808 217 816 212 c 0
 822 207 828 200 831 192 c 0
 833 187 833 186 833 172 c 0
 833 158 833 154 831 144 c 0
 827 127 822 111 815 96 c 0
 811 90 808 84 808 84 c 2
 810 83 826 82 836 82 c 0
 851 83 854 82 863 77 c 0
 871 73 876 67 881 58 c 0
 884 52 885 51 885 42 c 0
 885 32 884 31 881 25 c 0
 876 13 866 5 854 1 c 0
 847 -1 823 -2 811 0 c 0
 789 2 764 8 740 17 c 2
 729 21 l 1
 717 18 l 2
 678 6 636 0 573 -4 c 0
 546 -6 415 -6 382 -5 c 0
 299 -2 249 8 205 29 c 0
 174 44 155 60 137 86 c 0
 120 112 109 145 104 188 c 0
 102 203 101 241 103 254 c 0
 108 310 132 354 173 386 c 0
 187 397 213 412 229 418 c 0
 232 419 235 421 235 421 c 2
 234 422 232 427 227 432 c 0
 207 460 192 485 179 511 c 0
 159 550 152 578 152 611 c 0
 152 658 161 697 176 728 c 0
 191 756 211 777 240 792 c 0
 277 812 325 821 393 824 c 0
537 740 m 0
 522 741 412 742 390 741 c 0
 332 738 294 730 270 715 c 0
 249 700 239 675 236 630 c 0
 235 612 235 597 238 588 c 0
 244 562 263 525 289 487 c 0
 303 468 321 444 322 445 c 0
 343 449 368 453 401 458 c 0
 491 470 515 474 542 481 c 0
 618 498 656 523 669 565 c 0
 674 581 676 604 674 630 c 0
 670 686 656 710 619 725 c 0
 598 733 575 737 537 740 c 0
306 336 m 0
 298 345 291 352 291 352 c 1
 291 352 285 351 278 348 c 0
 263 343 253 338 244 333 c 0
 198 308 181 274 186 211 c 0
 189 166 198 140 215 121 c 0
 234 101 275 87 332 82 c 0
 360 78 377 78 440 77 c 0
 515 77 570 78 604 82 c 0
 609 82 610 82 609 83 c 0
 602 88 556 119 545 126 c 0
 459 187 374 262 306 336 c 0
EndSplineSet
EndChar

StartChar: parenleft
Encoding: 40 40 7
Width: 354
VWidth: 910
Flags: HW
LayerCount: 2
Fore
SplineSet
237 868 m 0
 251 870 266 870 272 869 c 0
 290 864 303 847 303 829 c 0
 303 810 289 793 271 788 c 0
 268 788 261 787 256 787 c 0
 217 785 183 766 168 737 c 0
 156 715 146 667 141 615 c 0
 136 560 135 528 135 410 c 0
 135 292 136 259 141 204 c 0
 146 152 156 104 168 82 c 0
 183 53 217 34 256 32 c 0
 269 32 274 31 280 27 c 0
 305 14 310 -19 291 -39 c 0
 279 -50 267 -53 238 -49 c 0
 207 -45 176 -34 151 -18 c 0
 105 13 82 54 67 131 c 0
 54 197 51 261 51 410 c 0
 51 559 54 622 67 688 c 0
 82 765 105 806 151 837 c 0
 176 853 207 864 237 868 c 0
EndSplineSet
EndChar

StartChar: parenright
Encoding: 41 41 8
Width: 354
VWidth: 910
Flags: HW
LayerCount: 2
Fore
SplineSet
82 869 m 0
 92 872 119 869 141 864 c 0
 187 853 223 828 248 793 c 0
 276 753 294 676 300 568 c 0
 304 501 304 318 300 251 c 0
 294 143 276 66 248 26 c 0
 219 -16 172 -43 117 -49 c 0
 88 -53 75 -50 63 -39 c 0
 44 -19 49 14 74 27 c 0
 80 31 85 32 98 32 c 0
 137 34 171 53 186 82 c 0
 198 104 208 152 213 204 c 0
 218 259 219 292 219 410 c 0
 219 528 218 560 213 615 c 0
 208 667 198 715 186 737 c 0
 171 766 137 785 98 787 c 0
 93 787 86 788 84 788 c 0
 65 793 51 810 51 829 c 0
 51 847 64 864 82 869 c 0
EndSplineSet
EndChar

StartChar: asterisk
Encoding: 42 42 9
Width: 809
VWidth: 910
Flags: HW
LayerCount: 2
Fore
SplineSet
394 817 m 0
 417 823 440 809 445 786 c 0
 446 783 446 771 446 752 c 2
 446 722 l 1
 469 735 l 2
 499 751 502 754 509 755 c 0
 526 759 546 748 553 731 c 0
 556 726 556 725 556 714 c 0
 556 704 556 702 553 696 c 0
 548 685 543 681 513 665 c 0
 490 651 488 650 490 649 c 0
 491 649 501 641 515 634 c 0
 528 626 540 619 542 617 c 0
 551 609 557 597 556 583 c 0
 555 577 556 574 553 569 c 0
 548 560 541 554 532 549 c 0
 526 546 525 546 515 546 c 0
 505 546 504 546 498 549 c 0
 494 551 482 558 469 565 c 0
 457 572 447 578 446 578 c 2
 446 548 l 2
 446 515 446 510 441 502 c 0
 436 492 423 484 411 482 c 0
 391 479 370 492 365 512 c 0
 363 516 363 523 363 548 c 2
 363 578 l 2
 362 578 352 572 340 565 c 0
 327 558 315 551 311 549 c 0
 305 546 304 546 294 546 c 0
 284 546 283 546 277 549 c 0
 268 554 262 560 257 569 c 0
 254 574 254 577 253 583 c 0
 252 597 258 609 267 617 c 0
 269 619 281 626 294 634 c 0
 308 641 318 649 319 649 c 0
 321 650 319 651 296 665 c 0
 266 681 262 685 257 696 c 0
 254 702 254 704 254 714 c 0
 254 725 254 726 257 732 c 0
 267 753 292 761 312 751 c 0
 315 750 327 742 340 735 c 2
 363 722 l 1
 363 752 l 2
 363 777 363 783 365 787 c 0
 369 802 379 813 394 817 c 0
EndSplineSet
EndChar

StartChar: plus
Encoding: 43 43 10
Width: 1011
VWidth: 910
Flags: HW
LayerCount: 2
Fore
SplineSet
495 613 m 0
 518 619 541 605 546 582 c 0
 547 578 547 544 547 462 c 2
 547 349 l 1
 735 349 l 2
 890 349 924 349 929 348 c 0
 947 343 960 326 960 308 c 0
 960 289 947 272 929 267 c 0
 924 266 890 266 735 266 c 2
 547 266 l 1
 547 152 l 2
 547 70 547 37 546 33 c 0
 542 15 525 0 506 0 c 0
 487 0 471 13 466 32 c 0
 464 37 464 51 464 151 c 2
 464 266 l 1
 276 266 l 2
 121 266 87 266 83 267 c 0
 64 272 51 289 51 308 c 0
 51 326 64 343 83 348 c 0
 87 349 121 349 276 349 c 2
 464 349 l 1
 464 463 l 2
 464 563 464 578 466 583 c 0
 470 598 480 609 495 613 c 0
EndSplineSet
EndChar

StartChar: comma
Encoding: 44 44 11
Width: 303
VWidth: 910
Flags: HW
LayerCount: 2
Fore
SplineSet
141 81 m 0
 164 87 187 73 192 49 c 0
 193 45 193 38 193 25 c 0
 190 -41 174 -107 145 -167 c 0
 137 -182 134 -185 130 -190 c 0
 106 -214 66 -202 60 -167 c 0
 58 -157 60 -152 70 -130 c 0
 95 -76 107 -28 110 30 c 0
 110 39 111 48 112 51 c 0
 115 66 126 77 141 81 c 0
EndSplineSet
EndChar

StartChar: hyphen
Encoding: 45 45 12
Width: 1011
VWidth: 910
Flags: HW
LayerCount: 2
Fore
SplineSet
82 348 m 0
 88 349 922 350 929 348 c 0
 947 343 960 326 960 308 c 0
 960 289 947 272 929 267 c 0
 922 265 89 265 83 267 c 0
 64 272 51 289 51 308 c 0
 51 326 64 343 82 348 c 0
EndSplineSet
EndChar

StartChar: period
Encoding: 46 46 13
Width: 303
VWidth: 910
Flags: HW
LayerCount: 2
Fore
SplineSet
142 82 m 0
 164 87 186 74 191 51 c 0
 198 26 178 0 151 0 c 0
 125 0 105 26 111 51 c 0
 116 66 127 78 142 82 c 0
EndSplineSet
EndChar

StartChar: slash
Encoding: 47 47 14
Width: 708
VWidth: 910
Flags: HW
LayerCount: 2
Fore
SplineSet
605 817 m 0
 639 826 669 791 653 759 c 0
 649 753 125 16 121 12 c 0
 111 2 96 -2 83 1 c 0
 57 8 44 36 56 60 c 0
 60 66 583 803 587 808 c 0
 592 812 599 816 605 817 c 0
EndSplineSet
EndChar

StartChar: zero
Encoding: 48 48 15
Width: 910
VWidth: 910
Flags: HW
LayerCount: 2
Fore
SplineSet
405 824 m 0
 420 825 518 824 531 823 c 0
 593 818 635 808 674 788 c 0
 696 777 717 760 732 745 c 0
 777 699 802 633 810 543 c 0
 814 508 814 495 814 410 c 0
 814 352 814 321 813 309 c 0
 808 229 797 178 772 131 c 0
 749 85 718 53 674 31 c 0
 635 11 593 1 529 -4 c 0
 507 -6 403 -6 382 -4 c 0
 295 2 240 21 194 59 c 0
 156 91 128 139 113 200 c 0
 105 231 100 263 97 309 c 0
 95 333 95 487 97 512 c 0
 102 591 113 641 138 688 c 0
 161 734 193 766 237 788 c 0
 281 811 328 821 405 824 c 0
526 740 m 0
 512 741 425 742 410 741 c 0
 389 740 369 739 356 737 c 0
 270 726 224 693 199 623 c 0
 189 591 184 560 180 504 c 0
 178 479 178 340 180 316 c 0
 182 282 185 254 189 235 c 0
 195 205 206 178 218 158 c 0
 248 108 296 85 387 79 c 0
 409 77 501 77 524 79 c 0
 623 86 673 113 702 175 c 0
 717 209 725 249 730 316 c 0
 732 340 732 479 730 504 c 0
 728 537 725 565 721 584 c 0
 715 614 705 641 693 661 c 0
 663 711 614 734 526 740 c 0
EndSplineSet
EndChar

StartChar: one
Encoding: 49 49 16
Width: 631
VWidth: 910
Flags: HW
LayerCount: 2
Fore
SplineSet
479 817 m 0
 502 823 525 809 530 786 c 0
 531 780 531 39 530 33 c 0
 526 14 508 0 490 0 c 0
 474 0 457 10 451 25 c 2
 449 31 l 1
 448 358 l 1
 448 684 l 1
 340 587 l 2
 81 354 96 369 89 365 c 0
 84 362 81 362 75 361 c 0
 62 361 51 365 43 373 c 0
 31 385 28 405 35 420 c 0
 37 424 40 428 43 431 c 0
 45 434 139 519 251 620 c 0
 363 721 458 804 461 807 c 0
 466 812 473 815 479 817 c 0
EndSplineSet
EndChar

StartChar: two
Encoding: 50 50 17
Width: 910
VWidth: 910
Flags: HW
LayerCount: 2
Fore
SplineSet
372 824 m 0
 397 825 542 824 556 823 c 0
 640 818 694 802 733 777 c 0
 783 743 809 682 809 597 c 0
 809 578 809 565 805 548 c 0
 793 478 752 421 684 376 c 0
 637 344 587 321 477 282 c 0
 431 266 408 257 387 249 c 0
 284 210 227 170 202 119 c 0
 197 111 191 93 190 86 c 2
 189 83 l 1
 481 83 l 2
 800 83 777 82 787 77 c 0
 797 72 805 60 808 48 c 0
 811 32 802 12 787 5 c 0
 777 0 802 0 455 0 c 0
 190 0 138 0 133 1 c 0
 121 5 111 14 106 25 c 0
 103 30 102 32 102 41 c 0
 101 75 109 116 124 147 c 0
 151 209 203 257 289 298 c 0
 327 317 357 327 449 360 c 0
 523 386 556 401 590 416 c 0
 669 455 712 501 723 558 c 0
 729 592 726 635 716 665 c 0
 709 690 696 705 676 715 c 0
 647 730 612 736 550 740 c 0
 525 742 374 742 344 740 c 0
 291 737 257 732 230 725 c 0
 215 720 208 717 201 710 c 0
 191 700 187 689 185 675 c 0
 184 653 176 641 161 634 c 0
 154 630 154 631 144 631 c 0
 133 631 133 630 126 634 c 0
 110 641 102 655 102 674 c 0
 102 691 108 714 116 731 c 0
 130 760 150 780 178 795 c 0
 215 812 277 821 372 824 c 0
EndSplineSet
EndChar

StartChar: three
Encoding: 51 51 18
Width: 910
VWidth: 910
Flags: HW
LayerCount: 2
Fore
SplineSet
326 827 m 0
 343 828 419 827 432 826 c 0
 437 826 464 826 491 825 c 0
 557 824 583 821 618 816 c 0
 688 806 739 784 768 750 c 0
 777 739 784 729 791 715 c 0
 798 700 801 691 806 676 c 0
 819 627 819 566 806 517 c 0
 801 502 798 495 791 480 c 0
 777 452 761 431 737 416 c 2
 728 410 l 1
 736 404 l 2
 759 389 777 368 791 342 c 0
 797 327 801 318 806 302 c 0
 819 254 819 192 806 144 c 0
 801 128 797 119 791 105 c 0
 774 70 752 48 718 32 c 0
 690 17 659 8 618 3 c 0
 583 -2 557 -4 491 -5 c 0
 464 -6 437 -7 432 -7 c 0
 415 -9 355 -9 331 -8 c 0
 283 -6 235 -1 197 7 c 0
 143 17 113 40 104 75 c 0
 99 100 106 119 125 129 c 0
 138 134 149 134 162 129 c 0
 174 123 181 113 184 99 c 0
 185 97 186 96 188 96 c 0
 203 88 273 78 336 75 c 0
 359 74 410 74 428 76 c 0
 433 77 459 76 486 77 c 0
 536 78 559 79 583 82 c 0
 643 87 685 101 703 121 c 0
 713 132 720 148 725 167 c 0
 730 184 731 198 731 223 c 0
 731 248 730 262 725 279 c 0
 720 298 713 314 703 325 c 0
 685 345 643 359 583 364 c 0
 558 367 537 368 494 369 c 0
 469 369 449 370 447 370 c 0
 434 373 423 381 418 393 c 0
 415 398 415 400 415 411 c 0
 415 421 415 422 418 427 c 0
 423 439 434 448 447 451 c 0
 449 451 469 451 494 451 c 0
 537 452 558 453 583 456 c 0
 643 461 685 475 704 495 c 0
 718 510 725 533 730 563 c 0
 732 579 732 615 730 632 c 0
 725 661 718 683 704 698 c 0
 685 718 643 732 583 737 c 0
 559 740 536 741 486 742 c 0
 459 743 433 743 428 744 c 0
 423 744 405 744 389 745 c 0
 334 746 280 742 225 733 c 0
 206 730 193 727 188 724 c 0
 186 724 185 722 184 720 c 0
 181 706 174 696 162 690 c 0
 149 685 138 685 125 690 c 0
 106 700 99 720 104 745 c 0
 110 769 125 785 151 798 c 0
 164 804 178 808 197 812 c 0
 232 819 281 824 326 827 c 0
EndSplineSet
EndChar

StartChar: four
Encoding: 52 52 19
Width: 834
VWidth: 910
Flags: HW
LayerCount: 2
Fore
SplineSet
295 818 m 0
 304 820 316 819 325 814 c 0
 340 807 349 787 346 772 c 0
 345 768 344 764 342 761 c 0
 341 758 216 559 194 524 c 1
 193 522 l 1
 309 522 l 1
 427 522 l 1
 427 550 l 2
 427 566 427 579 428 582 c 0
 432 601 450 614 469 614 c 0
 487 614 505 601 509 582 c 0
 510 579 510 566 510 550 c 2
 510 522 l 1
 629 522 l 2
 725 522 748 523 753 522 c 0
 771 517 784 500 784 482 c 0
 784 463 771 446 753 441 c 0
 748 440 725 440 629 440 c 2
 510 440 l 1
 510 238 l 2
 510 92 510 37 509 33 c 0
 505 15 488 0 469 0 c 0
 450 0 434 13 429 32 c 0
 427 37 427 60 427 238 c 2
 427 440 l 1
 269 440 l 2
 99 440 108 439 98 444 c 0
 81 453 72 475 78 494 c 0
 81 501 270 800 276 806 c 0
 281 811 289 816 295 818 c 0
EndSplineSet
EndChar

StartChar: five
Encoding: 53 53 20
Width: 910
VWidth: 910
Flags: HW
LayerCount: 2
Fore
SplineSet
133 817 m 0
 138 819 181 819 455 819 c 0
 802 819 777 819 787 814 c 0
 797 809 805 797 808 785 c 0
 811 769 802 749 787 742 c 0
 777 737 800 736 479 736 c 2
 185 736 l 1
 185 668 l 1
 185 599 l 1
 190 601 l 2
 221 611 278 617 354 619 c 0
 395 620 499 620 527 619 c 0
 602 616 653 605 695 583 c 0
 736 562 765 533 785 492 c 0
 802 457 811 416 814 360 c 0
 815 336 815 278 814 255 c 0
 811 199 802 157 785 122 c 0
 774 99 762 84 747 68 c 0
 711 33 661 11 595 2 c 0
 557 -3 526 -5 445 -5 c 0
 302 -5 231 0 185 15 c 0
 137 30 105 69 102 112 c 0
 101 127 105 137 114 146 c 0
 122 155 131 158 144 158 c 0
 156 158 165 155 173 147 c 0
 180 139 185 127 185 118 c 0
 185 113 185 111 190 106 c 0
 196 99 209 94 228 90 c 0
 270 81 332 77 446 77 c 0
 521 77 550 79 583 84 c 0
 608 88 626 91 644 99 c 0
 681 114 704 138 716 174 c 0
 727 205 732 242 732 308 c 0
 732 373 727 410 716 441 c 0
 699 493 658 521 583 531 c 0
 550 536 521 537 446 537 c 0
 332 537 270 533 228 524 c 0
 209 520 196 515 190 508 c 0
 185 503 185 501 185 496 c 0
 185 483 176 467 165 461 c 0
 152 454 135 454 122 461 c 0
 114 466 106 477 103 488 c 0
 102 492 102 519 102 637 c 0
 102 764 102 782 104 787 c 0
 108 802 118 813 133 817 c 0
EndSplineSet
EndChar

StartChar: six
Encoding: 54 54 21
Width: 910
VWidth: 910
Flags: HW
LayerCount: 2
Fore
SplineSet
371 824 m 0
 385 825 507 824 532 823 c 0
 588 820 627 815 659 807 c 0
 681 802 697 796 712 785 c 0
 723 778 738 763 744 754 c 0
 755 737 762 716 764 698 c 0
 764 687 763 680 758 672 c 0
 754 664 748 659 739 654 c 0
 733 651 732 651 723 651 c 0
 713 651 711 651 705 654 c 0
 696 659 690 664 686 672 c 0
 682 679 682 681 681 691 c 0
 680 700 677 706 670 713 c 0
 660 722 646 726 618 731 c 0
 595 736 567 738 527 740 c 0
 496 742 398 742 380 741 c 0
 304 736 253 712 228 669 c 0
 215 648 201 610 196 580 c 0
 195 576 195 574 194 573 c 0
 194 572 196 572 201 575 c 0
 239 598 288 612 351 617 c 0
 397 621 513 621 559 617 c 0
 640 611 696 590 739 553 c 0
 779 518 804 463 811 391 c 0
 815 361 816 295 814 255 c 0
 810 186 796 136 770 97 c 0
 731 38 663 5 559 -3 c 0
 513 -7 397 -7 351 -3 c 0
 270 3 214 24 171 61 c 0
 136 92 113 138 103 197 c 0
 97 232 96 259 96 351 c 0
 97 423 97 446 100 484 c 0
 109 615 139 707 189 754 c 0
 232 795 292 818 371 824 c 0
522 536 m 0
 498 537 411 537 386 536 c 0
 302 532 253 518 222 487 c 0
 199 464 187 433 182 384 c 0
 177 344 177 270 182 230 c 0
 184 206 188 191 194 174 c 0
 208 134 234 110 279 95 c 0
 319 81 359 77 455 77 c 0
 551 77 592 81 632 95 c 0
 657 103 673 112 688 127 c 0
 704 143 716 164 722 192 c 0
 729 217 732 254 732 308 c 0
 732 373 727 410 716 441 c 0
 702 481 677 505 632 520 c 0
 603 530 572 534 522 536 c 0
EndSplineSet
EndChar

StartChar: seven
Encoding: 55 55 22
Width: 809
VWidth: 910
Flags: HW
LayerCount: 2
Fore
SplineSet
82 818 m 0
 88 819 720 820 727 818 c 0
 752 811 766 783 754 759 c 0
 749 751 314 19 311 15 c 0
 305 7 294 1 282 0 c 0
 275 0 268 0 260 5 c 0
 252 9 247 16 242 25 c 0
 239 31 239 32 239 42 c 0
 239 51 239 52 242 58 c 0
 244 62 335 215 444 400 c 0
 554 584 644 735 644 736 c 2
 365 736 l 2
 136 736 87 736 83 737 c 0
 64 742 51 759 51 778 c 0
 51 796 64 813 82 818 c 0
EndSplineSet
EndChar

StartChar: eight
Encoding: 56 56 23
Width: 910
VWidth: 910
Flags: HW
LayerCount: 2
Fore
SplineSet
384 824 m 0
 403 825 542 824 556 823 c 0
 627 818 673 808 710 789 c 0
 732 779 746 768 759 753 c 0
 790 716 806 664 804 598 c 0
 803 566 799 545 791 520 c 0
 779 483 757 452 730 435 c 0
 726 433 724 431 724 431 c 1
 724 431 725 429 728 428 c 0
 743 419 764 400 775 385 c 0
 802 347 815 298 815 232 c 0
 815 161 798 107 765 69 c 0
 735 35 684 13 615 3 c 0
 571 -3 549 -5 455 -5 c 0
 361 -5 339 -3 295 3 c 0
 226 13 175 35 145 69 c 0
 112 107 96 161 96 232 c 0
 96 298 109 347 136 385 c 0
 147 400 167 419 182 428 c 0
 185 429 187 431 187 431 c 1
 187 431 184 433 180 435 c 0
 171 440 158 452 151 461 c 0
 128 488 114 522 108 566 c 0
 106 581 105 616 107 633 c 0
 111 682 126 723 151 753 c 0
 164 768 178 779 200 789 c 0
 243 811 298 821 384 824 c 0
552 740 m 0
 538 741 407 742 389 741 c 0
 312 738 266 731 235 715 c 0
 214 704 202 686 195 656 c 0
 189 631 189 582 195 558 c 0
 202 527 214 510 235 499 c 0
 261 485 298 477 361 473 c 0
 385 471 525 471 550 473 c 0
 612 477 649 485 675 499 c 0
 696 510 708 527 715 558 c 0
 720 576 722 616 719 639 c 0
 714 669 705 691 690 705 c 0
 680 714 660 723 636 729 c 0
 616 734 587 737 552 740 c 0
552 387 m 0
 538 388 408 389 389 388 c 0
 314 385 268 377 235 362 c 0
 213 351 200 338 191 314 c 0
 175 273 175 193 191 152 c 0
 200 128 213 115 235 104 c 0
 263 90 302 83 361 79 c 0
 386 77 525 77 550 79 c 0
 608 83 647 90 675 104 c 0
 697 115 710 128 719 152 c 0
 735 193 735 273 719 314 c 0
 710 338 697 351 675 362 c 0
 647 375 609 383 552 387 c 0
EndSplineSet
EndChar

StartChar: nine
Encoding: 57 57 24
Width: 910
VWidth: 910
Flags: HW
LayerCount: 2
Fore
SplineSet
380 824 m 0
 425 826 527 825 559 822 c 0
 640 816 696 795 739 758 c 0
 774 727 797 682 807 623 c 0
 813 588 815 560 815 468 c 0
 814 396 813 373 810 336 c 0
 801 204 771 113 721 66 c 0
 677 24 616 0 535 -5 c 0
 517 -6 410 -6 379 -4 c 0
 322 -1 283 4 251 12 c 0
 229 17 213 24 198 35 c 0
 187 42 173 57 167 66 c 0
 156 83 149 103 147 121 c 0
 147 132 147 139 152 147 c 0
 156 155 162 161 171 166 c 0
 177 169 178 169 188 169 c 0
 197 169 199 169 205 166 c 0
 214 161 220 155 224 147 c 0
 228 140 228 138 229 128 c 0
 230 119 233 113 240 106 c 0
 250 97 264 93 292 88 c 0
 315 83 343 81 383 79 c 0
 414 77 513 77 531 78 c 0
 607 83 658 107 683 150 c 0
 696 171 710 209 715 240 c 0
 716 243 715 246 716 247 c 0
 716 248 714 247 709 244 c 0
 671 221 622 207 559 202 c 0
 513 198 397 198 351 202 c 0
 270 208 214 229 171 266 c 0
 131 301 106 356 99 428 c 0
 94 469 94 555 99 596 c 0
 106 668 131 723 171 758 c 0
 218 799 282 819 380 824 c 0
522 741 m 0
 498 742 411 742 386 741 c 0
 302 737 253 723 222 692 c 0
 199 669 187 638 182 589 c 0
 177 549 177 475 182 435 c 0
 184 411 188 396 194 379 c 0
 208 339 234 314 279 299 c 0
 319 285 359 282 455 282 c 0
 551 282 592 285 632 299 c 0
 657 307 673 317 688 332 c 0
 704 348 716 369 722 397 c 0
 729 422 732 458 732 512 c 0
 732 577 727 614 716 645 c 0
 702 685 677 710 632 725 c 0
 603 735 572 739 522 741 c 0
EndSplineSet
EndChar

StartChar: colon
Encoding: 58 58 25
Width: 303
VWidth: 910
Flags: HW
LayerCount: 2
Fore
SplineSet
142 613 m 0
 164 618 186 606 191 583 c 0
 198 558 178 532 151 532 c 0
 125 532 105 558 111 583 c 0
 116 598 127 609 142 613 c 0
142 82 m 0
 164 87 186 74 191 51 c 0
 198 26 178 0 151 0 c 0
 125 0 105 26 111 51 c 0
 116 66 127 78 142 82 c 0
EndSplineSet
EndChar

StartChar: semicolon
Encoding: 59 59 26
Width: 303
VWidth: 910
Flags: HW
LayerCount: 2
Fore
SplineSet
142 613 m 0
 164 618 186 606 191 583 c 0
 198 558 178 532 151 532 c 0
 125 532 105 558 111 583 c 0
 116 598 127 609 142 613 c 0
141 81 m 0
 164 87 187 73 192 49 c 0
 193 45 193 38 193 25 c 0
 190 -41 174 -107 145 -167 c 0
 137 -182 134 -185 130 -190 c 0
 106 -214 66 -202 60 -167 c 0
 58 -157 60 -152 70 -130 c 0
 95 -76 107 -28 110 30 c 0
 110 39 111 48 112 51 c 0
 115 66 126 77 141 81 c 0
EndSplineSet
EndChar

StartChar: less
Encoding: 60 60 27
Width: 1011
VWidth: 910
Flags: HW
LayerCount: 2
Fore
SplineSet
909 613 m 0
 934 619 960 599 960 573 c 0
 960 558 951 543 938 537 c 0
 935 535 776 483 584 421 c 0
 391 360 233 309 231 309 c 0
 227 308 239 304 580 194 c 0
 774 132 935 79 938 78 c 0
 952 72 960 57 960 42 c 0
 960 17 940 -2 917 0 c 0
 912 1 833 26 493 135 c 0
 265 209 76 269 73 271 c 0
 60 277 51 293 51 308 c 0
 51 323 60 337 73 343 c 0
 77 346 894 608 909 613 c 0
EndSplineSet
EndChar

StartChar: equal
Encoding: 61 61 28
Width: 1011
VWidth: 910
Flags: HW
LayerCount: 2
Fore
SplineSet
82 451 m 0
 88 452 922 453 929 451 c 0
 947 446 960 429 960 411 c 0
 960 392 947 375 929 370 c 0
 922 368 89 368 83 370 c 0
 76 372 68 375 63 380 c 0
 56 388 51 400 51 411 c 0
 51 429 64 446 82 451 c 0
82 246 m 0
 88 247 922 248 929 246 c 0
 947 241 960 224 960 206 c 0
 960 187 947 170 929 165 c 0
 922 163 89 163 83 165 c 0
 64 170 51 187 51 206 c 0
 51 224 64 241 82 246 c 0
EndSplineSet
EndChar

StartChar: greater
Encoding: 62 62 29
Width: 1011
VWidth: 910
Flags: HW
LayerCount: 2
Fore
SplineSet
82 613 m 0
 85 613 89 614 94 614 c 0
 101 613 121 607 518 480 c 0
 746 406 935 345 938 343 c 0
 951 337 960 323 960 308 c 0
 960 293 951 277 938 271 c 0
 935 269 746 209 518 135 c 0
 178 26 100 1 95 0 c 0
 72 -2 51 17 51 42 c 0
 51 57 60 72 74 78 c 0
 77 79 237 132 431 194 c 0
 772 304 784 308 780 309 c 0
 778 309 620 360 427 421 c 0
 235 483 76 535 73 537 c 0
 60 543 51 558 51 573 c 0
 51 591 64 608 82 613 c 0
EndSplineSet
EndChar

StartChar: question
Encoding: 63 63 30
Width: 809
VWidth: 910
Flags: HW
LayerCount: 2
Fore
SplineSet
325 824 m 0
 352 825 455 825 481 824 c 0
 548 821 597 812 636 796 c 0
 663 785 684 772 701 756 c 0
 732 724 749 683 756 622 c 0
 758 605 758 540 756 524 c 0
 752 485 745 457 732 431 c 0
 715 396 694 375 653 352 c 0
 613 329 570 315 522 309 c 0
 507 307 468 308 453 309 c 2
 446 309 l 1
 446 239 l 2
 446 183 446 169 445 165 c 0
 441 153 432 142 421 137 c 0
 416 134 415 135 405 135 c 0
 394 135 393 134 388 137 c 0
 377 142 368 153 364 165 c 0
 363 170 363 188 363 267 c 0
 363 352 363 364 365 369 c 0
 369 384 380 395 395 399 c 0
 402 402 407 401 421 398 c 0
 478 385 530 389 583 410 c 0
 603 418 630 434 640 443 c 0
 665 467 677 513 675 582 c 0
 673 649 660 686 632 706 c 0
 604 725 563 735 495 740 c 0
 471 742 338 742 314 740 c 0
 247 735 206 725 179 707 c 0
 149 687 137 651 134 585 c 0
 134 576 133 566 133 563 c 0
 129 544 112 530 93 530 c 0
 73 530 56 544 52 563 c 0
 51 567 51 574 51 589 c 0
 52 613 53 629 57 648 c 0
 68 708 95 752 137 778 c 0
 180 805 240 820 325 824 c 0
395 82 m 0
 417 87 439 74 444 51 c 0
 451 26 431 0 404 0 c 0
 378 0 358 26 364 51 c 0
 369 66 380 78 395 82 c 0
EndSplineSet
EndChar

StartChar: at
Encoding: 64 64 31
Width: 1213
VWidth: 910
Flags: HW
LayerCount: 2
Fore
SplineSet
522 812 m 0
 545 813 712 812 727 811 c 0
 831 806 896 792 954 764 c 0
 1010 737 1050 699 1076 646 c 0
 1105 588 1118 519 1118 413 c 0
 1118 376 1116 356 1109 330 c 0
 1105 313 1100 302 1093 286 c 0
 1073 247 1046 218 1008 200 c 0
 994 193 983 190 968 187 c 0
 915 175 862 187 828 220 c 2
 821 228 l 1
 818 218 l 2
 806 173 775 141 729 126 c 0
 701 117 669 113 614 113 c 0
 563 113 533 117 504 127 c 0
 430 151 396 209 388 323 c 0
 386 345 386 463 388 485 c 0
 396 599 430 657 504 681 c 0
 533 691 563 694 614 694 c 0
 680 694 720 688 751 673 c 0
 789 654 811 625 821 579 c 0
 826 555 826 554 827 443 c 2
 827 341 l 1
 833 342 l 2
 848 343 863 336 870 324 c 0
 875 318 876 311 877 301 c 0
 877 296 879 291 880 289 c 0
 888 269 922 260 954 268 c 0
 997 279 1025 315 1033 371 c 0
 1036 392 1035 448 1031 489 c 0
 1024 582 998 638 947 673 c 0
 901 705 834 722 739 727 c 0
 678 731 535 731 474 727 c 0
 333 719 253 684 215 615 c 0
 190 569 178 507 178 404 c 0
 178 258 201 187 259 141 c 0
 284 122 312 105 341 92 c 0
 392 70 448 59 502 61 c 0
 532 62 554 66 584 73 c 0
 603 78 608 79 616 76 c 0
 648 69 658 29 636 6 c 0
 629 0 623 -3 602 -8 c 0
 568 -16 537 -21 502 -22 c 0
 429 -24 356 -8 290 25 c 0
 238 50 192 84 167 115 c 0
 142 146 124 184 113 227 c 0
 100 276 96 324 96 404 c 0
 96 479 100 527 111 572 c 0
 133 665 180 726 259 764 c 0
 324 795 401 809 522 812 c 0
656 627 m 0
 639 628 588 628 573 627 c 0
 531 623 500 613 485 593 c 0
 468 571 459 538 454 482 c 0
 452 461 452 346 454 326 c 0
 458 281 464 253 475 231 c 0
 488 206 506 193 539 185 c 0
 556 181 568 180 603 179 c 0
 672 178 707 183 730 198 c 0
 746 209 754 227 759 256 c 0
 760 268 761 277 761 404 c 0
 761 530 760 540 759 552 c 0
 754 581 746 598 730 609 c 0
 714 619 691 624 656 627 c 0
EndSplineSet
EndChar

StartChar: A
Encoding: 65 65 32
Width: 961
VWidth: 910
Flags: HW
LayerCount: 2
Fore
SplineSet
441 818 m 0
 447 819 514 819 520 818 c 0
 527 815 535 811 540 806 c 0
 545 801 553 784 714 428 c 0
 807 223 883 54 884 52 c 0
 886 46 885 35 883 29 c 0
 877 8 855 -4 834 2 c 0
 821 5 812 11 806 25 c 0
 804 30 776 89 746 156 c 2
 692 277 l 1
 481 277 l 1
 269 277 l 1
 215 156 l 2
 185 89 158 30 156 25 c 0
 150 11 140 5 127 2 c 0
 106 -4 84 8 78 29 c 0
 76 35 75 46 77 52 c 0
 78 54 155 223 248 428 c 0
 409 784 416 801 421 806 c 0
 426 811 434 815 441 818 c 0
568 549 m 0
 487 727 483 736 481 736 c 0
 479 736 474 727 393 549 c 0
 347 446 308 360 308 360 c 2
 308 359 375 360 481 360 c 0
 587 360 654 359 654 360 c 2
 654 360 614 446 568 549 c 0
EndSplineSet
EndChar

StartChar: B
Encoding: 66 66 33
Width: 910
VWidth: 910
Flags: HW
LayerCount: 2
Fore
SplineSet
133 818 m 0
 141 820 296 819 369 816 c 0
 495 811 584 801 651 782 c 0
 685 772 718 756 743 734 c 0
 786 697 809 647 809 593 c 0
 809 517 769 445 709 415 c 2
 702 411 l 1
 712 407 l 2
 758 383 792 340 806 285 c 0
 812 262 814 252 814 228 c 0
 814 207 814 205 812 194 c 0
 805 161 791 133 770 108 c 0
 742 75 700 51 654 37 c 0
 591 20 507 9 393 4 c 0
 324 1 144 -1 135 1 c 0
 122 4 111 13 106 25 c 2
 103 31 l 1
 103 410 l 1
 103 789 l 1
 106 795 l 2
 111 806 121 814 133 818 c 0
292 735 m 0
 266 736 231 736 215 736 c 2
 185 736 l 1
 185 593 l 1
 185 451 l 1
 315 451 l 2
 442 452 461 452 507 456 c 0
 587 461 650 474 678 492 c 0
 704 509 721 543 725 582 c 0
 728 615 719 639 694 664 c 0
 676 682 654 695 627 703 c 0
 556 723 454 732 292 735 c 0
435 368 m 0
 416 369 352 369 293 369 c 2
 185 369 l 1
 185 226 l 1
 185 83 l 1
 246 83 l 2
 430 85 537 94 616 113 c 0
 655 123 679 135 701 156 c 0
 725 181 735 205 731 238 c 0
 728 271 717 296 698 315 c 0
 685 328 677 333 654 340 c 0
 606 356 540 365 435 368 c 0
EndSplineSet
EndChar

StartChar: C
Encoding: 67 67 34
Width: 910
VWidth: 910
Flags: HW
LayerCount: 2
Fore
SplineSet
397 824 m 0
 417 825 559 824 584 823 c 0
 671 818 729 808 763 792 c 0
 777 785 788 776 799 765 c 0
 818 746 831 723 836 697 c 0
 839 686 840 671 838 664 c 0
 835 650 829 639 816 634 c 0
 809 630 808 631 798 631 c 0
 787 631 787 630 780 634 c 0
 771 638 766 645 761 652 c 0
 758 658 757 661 756 672 c 0
 754 688 750 698 739 709 c 0
 727 719 709 726 676 731 c 0
 649 736 622 738 577 740 c 0
 544 742 408 742 387 740 c 0
 287 733 237 706 208 644 c 0
 193 610 185 570 180 504 c 0
 178 479 178 340 180 316 c 0
 182 282 185 254 189 235 c 0
 195 205 206 178 218 158 c 0
 248 108 296 85 387 79 c 0
 408 77 544 77 577 79 c 0
 671 84 719 93 739 110 c 0
 750 121 754 131 756 147 c 0
 757 158 758 161 761 167 c 0
 766 174 771 181 780 185 c 0
 787 189 787 189 798 189 c 0
 808 189 809 189 816 185 c 0
 829 180 835 170 838 156 c 0
 842 140 836 110 825 88 c 0
 810 56 778 30 743 19 c 0
 706 7 656 0 582 -4 c 0
 549 -6 402 -6 382 -4 c 0
 318 1 279 10 240 29 c 0
 187 55 151 96 127 155 c 0
 111 195 102 242 97 309 c 0
 95 333 95 487 97 512 c 0
 100 558 105 588 113 620 c 0
 128 680 156 728 194 760 c 0
 242 800 303 819 397 824 c 0
EndSplineSet
EndChar

StartChar: D
Encoding: 68 68 35
Width: 884
VWidth: 910
Flags: HW
LayerCount: 2
Fore
SplineSet
133 818 m 0
 137 819 151 819 208 819 c 0
 299 818 343 816 399 811 c 0
 505 802 582 783 645 751 c 0
 664 742 679 733 691 724 c 0
 772 663 814 556 814 410 c 0
 814 264 772 157 691 96 c 0
 679 87 664 77 645 68 c 0
 582 36 505 17 399 8 c 0
 344 3 299 1 208 0 c 0
 154 0 139 0 135 1 c 0
 122 4 111 13 106 25 c 2
 103 31 l 1
 103 410 l 1
 103 789 l 1
 106 795 l 2
 111 806 121 814 133 818 c 0
298 735 m 0
 284 736 253 735 228 736 c 2
 185 736 l 1
 185 410 l 1
 185 83 l 1
 228 83 l 2
 354 85 433 91 501 106 c 0
 551 116 595 133 626 152 c 0
 684 187 717 252 727 349 c 0
 737 445 724 541 692 598 c 0
 671 635 646 659 606 679 c 0
 537 712 442 730 298 735 c 0
EndSplineSet
EndChar

StartChar: E
Encoding: 69 69 36
Width: 884
VWidth: 910
Flags: HW
LayerCount: 2
Fore
SplineSet
133 818 m 0
 137 819 201 819 455 819 c 0
 798 819 776 820 786 815 c 0
 815 800 815 756 786 741 c 0
 776 736 797 736 479 736 c 2
 185 736 l 1
 185 594 l 1
 185 451 l 1
 453 451 l 2
 747 451 726 451 736 446 c 0
 746 441 755 429 757 417 c 0
 760 401 751 381 736 374 c 0
 726 369 747 369 453 369 c 2
 185 369 l 1
 185 226 l 1
 185 83 l 1
 479 83 l 2
 797 83 776 83 786 78 c 0
 815 63 815 20 786 5 c 0
 776 0 798 0 455 0 c 0
 190 0 138 0 133 1 c 0
 121 5 111 14 106 25 c 2
 103 31 l 1
 103 410 l 1
 103 789 l 1
 106 795 l 2
 111 806 121 814 133 818 c 0
EndSplineSet
EndChar

StartChar: F
Encoding: 70 70 37
Width: 884
VWidth: 910
Flags: HW
LayerCount: 2
Fore
SplineSet
133 818 m 0
 137 819 201 819 455 819 c 0
 798 819 776 820 786 815 c 0
 815 800 815 756 786 741 c 0
 776 736 797 736 479 736 c 2
 185 736 l 1
 185 594 l 1
 185 451 l 1
 453 451 l 2
 747 451 726 451 736 446 c 0
 746 441 755 429 757 417 c 0
 760 401 751 381 736 374 c 0
 726 369 747 369 453 369 c 2
 185 369 l 1
 185 203 l 2
 185 84 185 37 184 33 c 0
 180 15 163 0 144 0 c 0
 125 0 107 15 103 33 c 0
 102 37 102 147 102 413 c 2
 103 789 l 1
 106 795 l 2
 111 806 121 814 133 818 c 0
EndSplineSet
EndChar

StartChar: G
Encoding: 71 71 38
Width: 910
VWidth: 910
Flags: HW
LayerCount: 2
Fore
SplineSet
397 824 m 0
 417 825 559 824 584 823 c 0
 671 818 729 808 763 792 c 0
 777 785 788 776 799 765 c 0
 818 746 831 723 836 697 c 0
 839 686 840 671 838 664 c 0
 835 650 829 639 816 634 c 0
 809 630 808 631 798 631 c 0
 787 631 787 630 780 634 c 0
 771 638 766 645 761 652 c 0
 758 658 757 661 756 672 c 0
 754 688 750 698 739 709 c 0
 727 719 709 726 676 731 c 0
 649 736 622 738 577 740 c 0
 544 742 408 742 387 740 c 0
 287 733 237 706 208 644 c 0
 193 610 185 570 180 504 c 0
 178 479 178 340 180 316 c 0
 182 282 185 254 189 235 c 0
 195 205 206 178 218 158 c 0
 248 108 296 85 387 79 c 0
 408 77 544 77 577 79 c 0
 636 82 675 87 705 94 c 0
 731 101 747 113 754 132 c 2
 756 138 l 1
 756 253 l 1
 756 369 l 1
 624 369 l 2
 507 369 492 368 487 370 c 0
 464 375 451 399 457 420 c 0
 461 435 472 446 487 450 c 0
 492 452 510 451 647 451 c 0
 774 451 803 452 808 451 c 0
 823 446 835 433 838 418 c 0
 839 414 839 375 839 271 c 2
 838 130 l 1
 836 120 l 2
 832 107 830 99 825 88 c 0
 810 57 778 30 743 19 c 0
 706 7 656 0 582 -4 c 0
 549 -6 402 -6 382 -4 c 0
 318 1 279 10 240 29 c 0
 187 55 151 96 127 155 c 0
 111 195 102 242 97 309 c 0
 95 333 95 487 97 512 c 0
 100 558 105 588 113 620 c 0
 128 680 156 728 194 760 c 0
 242 800 303 819 397 824 c 0
EndSplineSet
EndChar

StartChar: H
Encoding: 72 72 39
Width: 910
VWidth: 910
Flags: HW
LayerCount: 2
Fore
SplineSet
133 817 m 0
 156 823 179 809 184 786 c 0
 185 782 185 741 185 637 c 2
 185 493 l 1
 456 493 l 1
 726 493 l 1
 726 638 l 2
 726 765 726 782 728 787 c 0
 735 819 774 829 797 807 c 0
 802 802 806 793 808 786 c 0
 809 780 809 39 808 33 c 0
 804 15 787 0 768 0 c 0
 749 0 733 13 728 32 c 0
 726 37 726 58 726 224 c 2
 726 411 l 1
 456 411 l 1
 185 411 l 1
 185 224 l 2
 185 89 185 37 184 33 c 0
 180 15 163 0 144 0 c 0
 125 0 109 13 104 32 c 0
 102 37 102 78 102 410 c 0
 102 742 102 782 104 787 c 0
 108 802 118 813 133 817 c 0
EndSplineSet
EndChar

StartChar: I
Encoding: 73 73 40
Width: 556
VWidth: 910
Flags: HW
LayerCount: 2
Fore
SplineSet
268 817 m 0
 291 823 314 809 319 786 c 0
 320 780 320 39 319 33 c 0
 315 15 298 0 279 0 c 0
 260 0 243 13 238 32 c 0
 236 37 237 78 237 410 c 0
 237 742 236 782 238 787 c 0
 242 802 253 813 268 817 c 0
EndSplineSet
EndChar

StartChar: J
Encoding: 74 74 41
Width: 758
VWidth: 910
Flags: HW
LayerCount: 2
Fore
SplineSet
605 818 m 0
 627 823 651 809 656 786 c 0
 657 780 657 370 656 333 c 0
 653 246 643 186 622 137 c 0
 600 86 568 54 522 31 c 0
 489 15 458 7 406 2 c 0
 390 0 318 0 303 2 c 0
 250 7 219 15 186 31 c 0
 164 42 147 53 132 68 c 0
 86 113 61 187 54 294 c 0
 51 330 50 418 52 427 c 0
 55 440 63 450 75 455 c 0
 82 459 82 460 93 460 c 0
 103 460 103 459 110 455 c 0
 123 450 130 439 133 426 c 0
 133 423 134 402 134 377 c 0
 135 331 135 313 138 284 c 0
 143 220 156 175 177 144 c 0
 201 109 240 91 308 85 c 0
 324 83 384 83 401 85 c 0
 468 91 508 109 532 144 c 0
 553 175 565 220 570 284 c 0
 574 324 573 328 574 560 c 2
 575 789 l 1
 578 795 l 2
 583 806 593 814 605 818 c 0
EndSplineSet
EndChar

StartChar: K
Encoding: 75 75 42
Width: 884
VWidth: 910
Flags: HW
LayerCount: 2
Fore
SplineSet
133 817 m 0
 156 823 179 809 184 786 c 0
 185 782 185 740 185 633 c 2
 185 483 l 2
 186 483 312 558 466 649 c 0
 621 740 749 814 752 816 c 0
 763 821 775 820 786 815 c 0
 812 802 817 766 795 747 c 0
 792 744 712 697 607 635 c 0
 485 563 424 527 425 527 c 1
 425 526 510 423 613 297 c 0
 716 170 801 66 802 64 c 0
 808 55 810 40 806 29 c 0
 798 2 765 -9 743 8 c 0
 739 11 685 76 544 248 c 0
 438 378 351 484 351 484 c 2
 350 484 314 462 268 435 c 2
 185 387 l 1
 185 212 l 2
 185 86 185 37 184 33 c 0
 180 15 163 0 144 0 c 0
 125 0 109 13 104 32 c 0
 102 37 102 78 102 410 c 0
 102 742 102 782 104 787 c 0
 108 802 118 813 133 817 c 0
EndSplineSet
EndChar

StartChar: L
Encoding: 76 76 43
Width: 859
VWidth: 910
Flags: HW
LayerCount: 2
Fore
SplineSet
133 817 m 0
 156 823 179 809 184 786 c 0
 185 782 185 688 185 432 c 2
 185 83 l 1
 479 83 l 2
 721 83 772 83 777 82 c 0
 795 77 808 60 808 42 c 0
 808 23 795 6 777 1 c 0
 770 -1 140 -1 133 1 c 0
 121 5 111 14 106 25 c 2
 103 31 l 1
 102 406 l 2
 102 672 102 782 103 786 c 0
 106 801 118 813 133 817 c 0
EndSplineSet
EndChar

StartChar: M
Encoding: 77 77 44
Width: 1314
VWidth: 910
Flags: HW
LayerCount: 2
Fore
SplineSet
133 817 m 0
 147 821 161 817 171 808 c 0
 174 805 270 670 415 465 c 0
 547 278 655 126 656 124 c 0
 657 122 670 140 899 464 c 0
 1032 652 1142 807 1144 808 c 0
 1155 817 1169 821 1182 818 c 0
 1197 813 1208 801 1212 786 c 0
 1213 780 1213 39 1212 33 c 0
 1207 10 1184 -4 1162 2 c 0
 1147 5 1138 13 1133 27 c 2
 1131 33 l 1
 1130 340 l 1
 1130 647 l 1
 909 335 l 2
 788 163 687 21 685 20 c 0
 678 14 667 9 657 9 c 0
 648 9 637 14 630 20 c 0
 628 21 527 163 406 335 c 2
 186 647 l 1
 185 340 l 2
 185 118 184 32 183 29 c 0
 175 7 155 -4 134 2 c 0
 119 6 108 17 104 32 c 0
 102 37 102 78 102 410 c 0
 102 742 102 782 104 787 c 0
 108 802 118 813 133 817 c 0
EndSplineSet
EndChar

StartChar: N
Encoding: 78 78 45
Width: 910
VWidth: 910
Flags: HW
LayerCount: 2
Fore
SplineSet
133 817 m 0
 145 821 158 818 169 810 c 0
 170 809 297 661 449 482 c 2
 726 155 l 1
 726 471 l 1
 727 787 l 1
 729 792 l 2
 734 806 743 814 758 817 c 0
 780 823 803 809 808 786 c 0
 809 780 809 39 808 33 c 0
 806 26 802 17 797 12 c 0
 782 -2 761 -4 745 7 c 0
 741 10 676 85 462 338 c 2
 186 664 l 1
 185 349 l 2
 185 121 184 32 183 29 c 0
 175 7 155 -4 134 2 c 0
 119 6 108 17 104 32 c 0
 102 37 102 78 102 410 c 0
 102 742 102 782 104 787 c 0
 108 802 118 813 133 817 c 0
EndSplineSet
EndChar

StartChar: O
Encoding: 79 79 46
Width: 1163
VWidth: 910
Flags: HW
LayerCount: 2
Fore
SplineSet
485 824 m 0
 544 826 676 825 719 822 c 0
 811 817 880 800 936 772 c 0
 1021 727 1067 656 1084 543 c 0
 1090 504 1091 480 1091 410 c 0
 1091 340 1090 315 1084 276 c 0
 1067 163 1021 92 936 47 c 0
 880 19 811 2 719 -3 c 0
 658 -7 505 -7 445 -3 c 0
 352 2 283 19 228 47 c 0
 142 92 96 163 79 276 c 0
 73 315 72 340 72 410 c 0
 72 480 73 504 79 543 c 0
 96 656 142 727 228 772 c 0
 291 804 370 820 485 824 c 0
671 741 m 0
 638 742 523 742 490 741 c 0
 380 737 309 723 257 693 c 0
 216 669 190 637 174 588 c 0
 160 547 154 492 154 410 c 0
 154 328 160 272 174 231 c 0
 185 199 198 176 218 156 c 0
 253 121 310 97 388 86 c 0
 434 79 484 77 582 77 c 0
 661 77 703 78 745 83 c 0
 812 88 868 104 907 127 c 0
 948 151 973 182 989 231 c 0
 1003 272 1009 328 1009 410 c 0
 1009 492 1003 547 989 588 c 0
 978 620 965 644 945 664 c 0
 910 699 854 722 776 733 c 0
 747 738 716 739 671 741 c 0
EndSplineSet
EndChar

StartChar: P
Encoding: 80 80 47
Width: 884
VWidth: 910
Flags: HW
LayerCount: 2
Fore
SplineSet
133 818 m 0
 141 820 297 819 370 816 c 0
 491 811 577 802 643 786 c 0
 678 776 700 766 725 749 c 0
 771 718 800 677 811 627 c 0
 813 615 813 613 813 594 c 0
 813 574 813 573 811 562 c 0
 797 497 752 446 686 417 c 0
 636 395 537 379 413 373 c 0
 362 370 278 369 218 369 c 2
 185 369 l 1
 185 203 l 2
 185 84 185 37 184 33 c 0
 180 15 163 0 144 0 c 0
 125 0 107 15 103 33 c 0
 102 37 102 147 102 413 c 2
 103 789 l 1
 106 795 l 2
 111 806 121 814 133 818 c 0
293 735 m 0
 267 736 232 736 215 736 c 2
 185 736 l 1
 185 594 l 1
 185 451 l 1
 215 451 l 2
 273 451 359 453 409 456 c 0
 509 461 592 473 640 488 c 0
 676 500 705 524 720 552 c 0
 747 605 720 666 655 694 c 0
 627 707 568 719 501 725 c 0
 445 731 382 733 293 735 c 0
EndSplineSet
EndChar

StartChar: Q
Encoding: 81 81 48
Width: 1163
VWidth: 910
Flags: HW
LayerCount: 2
Fore
SplineSet
485 824 m 0
 544 826 676 825 719 822 c 0
 811 817 880 800 936 772 c 0
 1021 727 1067 656 1084 543 c 0
 1090 504 1091 480 1091 410 c 0
 1091 328 1090 293 1079 246 c 0
 1067 191 1044 142 1016 109 c 0
 1013 106 1011 105 1011 104 c 2
 1011 104 1019 96 1029 87 c 0
 1040 79 1049 71 1051 69 c 0
 1055 64 1060 54 1061 48 c 0
 1063 35 1058 21 1049 12 c 0
 1036 -1 1018 -3 1001 5 c 0
 998 7 985 17 970 29 c 2
 944 52 l 1
 932 46 l 2
 876 19 809 2 719 -3 c 0
 658 -7 505 -7 445 -3 c 0
 352 2 283 19 228 47 c 0
 142 92 96 163 79 276 c 0
 73 315 72 340 72 410 c 0
 72 480 73 504 79 543 c 0
 96 656 142 727 228 772 c 0
 291 804 370 820 485 824 c 0
671 741 m 0
 638 742 523 742 490 741 c 0
 380 737 309 723 257 693 c 0
 216 669 190 637 174 588 c 0
 160 547 154 492 154 410 c 0
 154 328 160 272 174 231 c 0
 185 199 198 176 218 156 c 0
 253 121 310 97 388 86 c 0
 434 79 484 77 582 77 c 0
 713 77 772 81 830 96 c 0
 843 99 869 108 873 110 c 1
 873 110 859 122 837 141 c 0
 794 176 791 181 787 186 c 0
 778 202 781 224 795 237 c 0
 806 248 822 251 837 246 c 0
 844 243 843 244 899 198 c 2
 947 157 l 1
 951 162 l 2
 993 208 1009 280 1009 410 c 0
 1009 492 1003 547 989 588 c 0
 978 620 965 644 945 664 c 0
 910 699 854 722 776 733 c 0
 747 738 716 739 671 741 c 0
EndSplineSet
EndChar

StartChar: R
Encoding: 82 82 49
Width: 910
VWidth: 910
Flags: HW
LayerCount: 2
Fore
SplineSet
133 818 m 0
 137 819 153 819 228 819 c 0
 334 818 384 818 449 813 c 0
 556 807 641 794 695 776 c 0
 700 774 714 769 723 764 c 0
 785 734 823 686 836 626 c 0
 838 615 838 612 838 594 c 0
 838 575 838 573 836 563 c 0
 823 502 785 454 723 424 c 0
 714 419 700 414 695 412 c 0
 643 395 562 382 460 375 c 1
 450 375 l 1
 635 226 l 2
 737 143 823 75 826 72 c 0
 838 62 842 44 837 29 c 0
 829 4 799 -9 776 6 c 0
 774 8 672 90 548 189 c 2
 324 370 l 1
 285 370 l 2
 264 369 232 369 216 369 c 2
 185 369 l 1
 185 203 l 2
 185 84 185 37 184 33 c 0
 180 15 163 0 144 0 c 0
 125 0 107 15 103 33 c 0
 102 37 102 147 102 413 c 2
 103 789 l 1
 106 795 l 2
 111 806 121 814 133 818 c 0
345 735 m 0
 328 736 284 735 249 736 c 2
 185 736 l 1
 185 594 l 1
 185 451 l 1
 249 451 l 2
 418 453 515 459 600 474 c 0
 666 486 699 500 725 526 c 0
 743 544 753 562 755 585 c 0
 757 600 754 619 747 634 c 0
 732 662 700 686 664 698 c 0
 601 718 499 730 345 735 c 0
EndSplineSet
EndChar

StartChar: S
Encoding: 83 83 50
Width: 910
VWidth: 910
Flags: HW
LayerCount: 2
Fore
SplineSet
383 824 m 0
 402 825 558 824 574 823 c 0
 664 818 718 807 749 785 c 0
 770 771 785 754 796 731 c 0
 804 714 809 691 809 674 c 0
 809 655 802 641 786 634 c 0
 779 630 778 631 768 631 c 0
 757 631 757 630 750 634 c 0
 735 641 727 653 726 675 c 0
 724 689 720 700 710 710 c 0
 705 715 702 717 697 719 c 0
 681 727 645 734 604 737 c 0
 567 741 546 741 462 741 c 0
 377 742 361 741 328 737 c 0
 268 732 226 718 207 698 c 0
 190 679 180 650 178 607 c 0
 177 584 181 568 188 553 c 0
 203 519 238 494 293 476 c 0
 338 461 385 453 451 451 c 0
 483 450 492 450 511 448 c 0
 640 436 733 393 778 327 c 0
 791 307 801 283 806 258 c 0
 811 227 809 179 799 142 c 0
 785 89 758 53 714 31 c 0
 674 11 627 1 554 -4 c 0
 529 -6 370 -6 340 -4 c 0
 248 1 194 13 162 35 c 0
 142 49 127 65 116 88 c 0
 108 105 102 128 102 145 c 0
 102 164 110 178 126 185 c 0
 133 189 133 189 143 189 c 0
 154 189 154 189 161 185 c 0
 176 178 184 166 185 144 c 0
 187 130 191 119 201 109 c 0
 208 102 215 99 230 94 c 0
 257 87 291 82 344 79 c 0
 374 77 525 77 550 79 c 0
 612 83 647 90 676 105 c 0
 696 115 709 129 716 154 c 0
 722 173 725 192 725 219 c 0
 726 243 723 256 715 272 c 0
 685 328 594 363 469 368 c 0
 411 370 386 372 356 377 c 0
 227 397 143 447 110 524 c 0
 101 546 97 567 96 592 c 0
 95 621 99 649 105 676 c 0
 110 691 112 700 119 715 c 0
 139 755 167 779 213 797 c 0
 253 812 306 821 383 824 c 0
EndSplineSet
EndChar

StartChar: T
Encoding: 84 84 51
Width: 859
VWidth: 910
Flags: HW
LayerCount: 2
Fore
SplineSet
107 818 m 0
 111 819 178 819 430 819 c 0
 773 819 751 820 761 815 c 0
 790 800 790 756 761 741 c 0
 751 736 758 736 609 736 c 2
 471 736 l 1
 471 387 l 2
 471 131 472 37 471 33 c 0
 467 15 450 0 431 0 c 0
 412 0 395 13 390 32 c 0
 388 37 389 76 389 387 c 2
 389 736 l 1
 250 736 l 2
 138 736 112 736 108 737 c 0
 89 742 76 758 76 778 c 0
 76 796 89 813 107 818 c 0
EndSplineSet
EndChar

StartChar: U
Encoding: 85 85 52
Width: 910
VWidth: 910
Flags: HW
LayerCount: 2
Fore
SplineSet
133 817 m 0
 154 823 176 812 183 790 c 0
 184 787 185 710 185 522 c 0
 185 330 186 254 187 247 c 0
 192 194 199 169 215 144 c 0
 221 134 236 119 246 113 c 0
 272 95 310 85 359 80 c 0
 403 76 508 76 553 80 c 0
 601 85 639 95 665 113 c 0
 675 119 690 134 696 144 c 0
 712 169 720 194 725 247 c 0
 726 254 726 330 726 522 c 2
 727 787 l 1
 729 792 l 2
 734 806 743 814 758 817 c 0
 780 823 803 810 808 786 c 0
 810 779 809 254 807 239 c 0
 802 184 794 155 779 122 c 0
 749 61 696 22 618 6 c 0
 577 -3 539 -5 456 -5 c 0
 372 -5 334 -3 294 6 c 0
 215 22 162 61 132 122 c 0
 125 138 121 149 116 167 c 0
 111 188 107 206 104 239 c 0
 102 254 101 779 103 786 c 0
 106 801 118 813 133 817 c 0
EndSplineSet
EndChar

StartChar: V
Encoding: 86 86 53
Width: 961
VWidth: 910
Flags: HW
LayerCount: 2
Fore
SplineSet
107 818 m 0
 112 819 122 819 127 817 c 0
 140 814 150 808 156 794 c 0
 158 789 231 627 319 434 c 0
 470 100 479 83 481 83 c 0
 483 83 491 100 642 434 c 0
 730 627 804 789 806 794 c 0
 812 808 821 814 834 817 c 0
 855 823 877 811 883 790 c 0
 885 784 886 773 884 768 c 0
 883 765 807 596 714 391 c 0
 553 35 545 19 540 14 c 0
 535 9 527 4 520 1 c 0
 513 -1 448 -1 441 1 c 0
 434 4 426 9 421 14 c 0
 416 19 409 35 248 391 c 0
 155 596 78 765 77 768 c 0
 75 773 76 784 78 790 c 0
 83 804 93 813 107 818 c 0
EndSplineSet
EndChar

StartChar: W
Encoding: 87 87 54
Width: 1365
VWidth: 910
Flags: HW
LayerCount: 2
Fore
SplineSet
107 818 m 0
 116 820 128 819 137 814 c 0
 143 810 151 803 154 796 c 0
 156 792 213 632 279 438 c 0
 345 244 400 85 400 85 c 1
 400 85 456 232 522 412 c 0
 589 592 644 742 646 745 c 0
 650 754 656 760 665 765 c 0
 671 768 673 768 683 768 c 0
 693 768 694 768 700 765 c 0
 709 760 715 754 719 745 c 0
 721 742 777 592 844 412 c 0
 910 232 965 85 965 85 c 1
 965 85 1021 244 1087 438 c 0
 1153 632 1210 792 1212 796 c 0
 1226 824 1266 826 1283 800 c 0
 1288 793 1289 785 1289 776 c 0
 1288 769 1282 749 1161 398 c 0
 1091 194 1032 26 1030 22 c 0
 1025 12 1016 5 1004 2 c 0
 997 -1 934 -1 927 2 c 0
 914 5 904 13 899 24 c 0
 897 28 848 161 789 319 c 0
 731 477 683 606 683 606 c 1
 683 606 634 477 576 319 c 0
 517 161 468 28 466 24 c 0
 461 13 452 5 439 2 c 0
 432 -1 368 -1 361 2 c 0
 349 5 340 12 335 22 c 0
 333 26 275 194 205 398 c 0
 84 749 77 769 76 776 c 0
 75 796 87 813 107 818 c 0
EndSplineSet
EndChar

StartChar: X
Encoding: 88 88 55
Width: 910
VWidth: 910
Flags: HW
LayerCount: 2
Fore
SplineSet
133 818 m 0
 145 821 161 817 170 809 c 0
 171 808 236 733 313 644 c 0
 390 555 455 482 455 482 c 1
 455 482 519 555 596 644 c 0
 673 733 738 807 740 809 c 0
 747 814 758 819 767 819 c 0
 787 819 804 804 808 784 c 0
 810 776 809 765 804 758 c 0
 802 754 742 686 655 585 c 0
 575 493 511 419 511 418 c 2
 511 418 579 338 663 242 c 0
 800 85 815 66 819 59 c 2
 824 52 l 1
 824 42 l 2
 824 32 823 31 820 25 c 0
 815 16 810 9 802 5 c 0
 794 0 787 0 780 0 c 0
 772 1 764 3 759 7 c 0
 755 10 709 63 605 183 c 0
 522 278 455 355 455 355 c 1
 455 355 388 278 306 183 c 0
 201 63 155 10 151 7 c 0
 146 3 138 1 130 0 c 0
 123 0 116 0 108 5 c 0
 100 9 95 16 90 25 c 0
 87 31 87 32 87 42 c 2
 87 52 l 1
 91 59 l 2
 95 66 111 85 248 242 c 0
 332 338 400 418 400 419 c 2
 400 419 334 494 255 586 c 0
 131 727 109 754 106 760 c 2
 103 766 l 1
 103 777 l 2
 103 788 103 790 106 795 c 0
 111 806 121 814 133 818 c 0
EndSplineSet
EndChar

StartChar: Y
Encoding: 89 89 56
Width: 910
VWidth: 910
Flags: HW
LayerCount: 2
Fore
SplineSet
133 818 m 0
 142 820 154 819 163 814 c 0
 166 813 171 809 175 804 c 0
 180 800 244 732 319 654 c 0
 394 576 455 512 455 512 c 1
 455 512 513 571 583 644 c 0
 749 818 740 810 747 814 c 0
 757 819 767 820 777 817 c 0
 798 812 812 792 808 772 c 0
 805 757 816 769 649 594 c 2
 497 436 l 1
 497 237 l 2
 497 93 497 37 496 33 c 0
 492 15 475 0 456 0 c 0
 437 0 421 13 416 32 c 0
 414 37 414 60 414 236 c 2
 414 434 l 1
 262 593 l 2
 85 777 103 758 103 777 c 0
 103 788 103 790 106 795 c 0
 111 806 121 814 133 818 c 0
EndSplineSet
EndChar

StartChar: Z
Encoding: 90 90 57
Width: 859
VWidth: 910
Flags: HW
LayerCount: 2
Fore
SplineSet
107 818 m 0
 113 819 745 820 752 818 c 0
 771 813 784 796 783 776 c 0
 782 767 781 760 776 754 c 0
 774 752 646 600 490 417 c 2
 208 84 l 1
 479 83 l 2
 675 83 751 82 754 81 c 0
 772 75 783 60 783 41 c 0
 783 22 770 6 752 1 c 0
 745 -1 114 -1 108 1 c 0
 88 6 75 24 76 44 c 0
 77 53 79 60 84 66 c 0
 86 68 214 219 370 403 c 2
 652 736 l 1
 380 736 l 2
 184 736 109 737 106 738 c 0
 88 744 76 759 76 778 c 0
 76 796 89 813 107 818 c 0
EndSplineSet
EndChar

StartChar: bracketleft
Encoding: 91 91 58
Width: 404
VWidth: 910
Flags: HW
LayerCount: 2
Fore
SplineSet
82 868 m 0
 89 870 315 871 322 869 c 0
 340 864 353 847 353 829 c 0
 353 810 340 793 322 788 c 0
 317 787 300 787 226 787 c 2
 134 787 l 1
 134 410 l 1
 134 32 l 1
 226 32 l 2
 300 32 317 32 322 31 c 0
 340 26 353 9 353 -9 c 0
 353 -28 340 -45 322 -50 c 0
 317 -51 296 -51 202 -51 c 0
 102 -51 88 -51 83 -49 c 0
 68 -45 57 -34 53 -19 c 0
 51 -14 51 32 51 410 c 0
 51 788 51 833 53 838 c 0
 57 853 67 864 82 868 c 0
EndSplineSet
EndChar

StartChar: backslash
Encoding: 92 92 59
Width: 708
VWidth: 910
Flags: HW
LayerCount: 2
Fore
SplineSet
82 818 m 0
 95 821 111 817 121 808 c 0
 125 803 649 66 653 60 c 0
 665 36 651 8 626 1 c 0
 612 -2 597 2 587 12 c 0
 583 16 60 753 56 759 c 0
 44 783 57 811 82 818 c 0
EndSplineSet
EndChar

StartChar: bracketright
Encoding: 93 93 60
Width: 404
VWidth: 910
Flags: HW
LayerCount: 2
Fore
SplineSet
82 869 m 0
 88 870 315 871 322 869 c 0
 337 864 348 852 352 837 c 0
 353 831 353 -12 352 -18 c 0
 348 -33 337 -45 322 -50 c 0
 315 -52 89 -52 83 -50 c 0
 64 -45 51 -28 51 -9 c 0
 51 9 64 26 83 31 c 0
 87 32 104 32 178 32 c 2
 270 32 l 1
 270 410 l 1
 270 787 l 1
 178 787 l 2
 104 787 87 787 83 788 c 0
 64 793 51 810 51 829 c 0
 51 847 64 864 82 869 c 0
EndSplineSet
EndChar

StartChar: asciicircum
Encoding: 94 94 61
Width: 506
VWidth: 910
Flags: HW
LayerCount: 2
Fore
SplineSet
243 818 m 0
 249 820 262 819 269 816 c 0
 272 814 305 793 356 758 c 0
 401 727 439 701 441 699 c 0
 445 696 450 688 452 682 c 0
 455 676 456 665 454 659 c 0
 452 652 447 642 442 637 c 0
 439 635 435 632 431 630 c 0
 425 627 423 627 414 627 c 0
 404 627 403 627 398 630 c 0
 394 631 360 654 323 680 c 0
 285 705 254 726 253 726 c 0
 252 726 221 705 183 680 c 0
 146 654 112 631 108 630 c 0
 103 627 102 627 93 627 c 0
 83 627 82 627 76 630 c 0
 67 635 60 640 56 648 c 0
 51 656 51 663 51 670 c 0
 52 684 58 694 70 703 c 0
 89 717 229 812 234 814 c 0
 237 816 240 817 243 818 c 0
EndSplineSet
EndChar

StartChar: underscore
Encoding: 95 95 62
Width: 910
VWidth: 910
Flags: HW
LayerCount: 2
Fore
SplineSet
31 -2 m 0
 38 1 872 1 879 -1 c 0
 894 -6 905 -18 909 -33 c 0
 914 -55 900 -76 879 -82 c 0
 874 -83 802 -83 455 -83 c 0
 82 -83 37 -83 32 -81 c 0
 17 -77 6 -66 2 -51 c 0
 -4 -30 9 -7 31 -2 c 0
EndSplineSet
EndChar

StartChar: a
Encoding: 97 97 63
Width: 859
VWidth: 910
Flags: HW
LayerCount: 2
Fore
SplineSet
340 619 m 0
 366 620 518 619 533 618 c 0
 599 613 644 604 678 588 c 0
 684 584 693 579 698 576 c 0
 721 560 740 532 749 503 c 0
 751 497 754 489 755 484 c 2
 758 476 l 1
 758 258 l 2
 758 97 758 38 757 34 c 0
 755 26 751 18 746 12 c 0
 722 -12 681 2 676 35 c 1
 674 41 l 1
 669 37 l 2
 644 21 608 8 568 2 c 0
 534 -3 498 -5 428 -5 c 0
 343 -5 299 -3 259 5 c 0
 205 16 168 36 145 64 c 0
 116 99 102 145 102 205 c 0
 102 248 109 283 123 313 c 0
 139 346 160 367 193 382 c 0
 233 402 280 411 356 414 c 0
 385 415 433 415 440 414 c 0
 472 409 524 408 560 413 c 0
 595 417 639 428 654 436 c 0
 661 440 669 447 673 454 c 0
 675 458 675 459 674 465 c 0
 669 488 658 505 643 513 c 0
 622 524 583 531 526 535 c 0
 501 537 340 537 310 535 c 0
 246 532 211 527 196 519 c 0
 189 516 185 512 185 509 c 0
 185 507 184 504 183 501 c 0
 176 469 138 459 114 482 c 0
 106 490 101 501 102 516 c 0
 104 541 118 567 142 583 c 0
 151 589 166 597 178 602 c 0
 208 612 263 617 340 619 c 0
675 298 m 0
 675 329 675 354 674 354 c 2
 674 354 667 352 658 349 c 0
 624 339 591 333 551 329 c 0
 546 328 530 328 516 327 c 0
 489 327 466 327 441 330 c 0
 423 332 396 333 360 331 c 0
 294 328 254 322 226 307 c 0
 217 302 206 292 201 284 c 0
 190 265 186 241 186 205 c 0
 186 169 190 145 201 126 c 0
 206 118 217 108 226 103 c 0
 254 88 294 81 360 78 c 0
 389 77 467 77 494 78 c 0
 571 82 615 94 641 120 c 0
 651 130 657 139 662 153 c 0
 673 183 675 210 675 298 c 0
EndSplineSet
EndChar

StartChar: b
Encoding: 98 98 64
Width: 859
VWidth: 910
Flags: HW
LayerCount: 2
Fore
SplineSet
133 817 m 0
 156 823 179 809 184 786 c 0
 185 782 185 757 185 699 c 2
 185 616 l 1
 188 619 l 2
 195 624 211 631 224 636 c 0
 259 651 302 658 361 661 c 0
 388 662 470 662 495 661 c 0
 577 657 630 642 674 609 c 0
 685 600 703 583 711 572 c 0
 741 531 757 482 762 411 c 0
 764 390 764 266 762 245 c 0
 759 205 752 170 742 143 c 0
 738 132 728 111 722 101 c 0
 695 57 652 26 598 11 c 0
 568 2 538 -3 495 -5 c 0
 470 -6 386 -6 357 -5 c 0
 282 -2 232 8 193 28 c 2
 184 33 l 1
 183 30 l 2
 182 25 178 17 173 12 c 0
 162 2 148 -2 134 2 c 0
 119 6 108 17 104 32 c 0
 102 37 102 78 102 410 c 0
 102 742 102 782 104 787 c 0
 108 802 118 813 133 817 c 0
491 578 m 0
 474 579 393 579 371 578 c 0
 291 576 242 561 217 535 c 0
 198 515 189 486 186 436 c 0
 185 415 185 205 186 189 c 0
 189 151 198 127 215 112 c 0
 221 107 237 99 251 94 c 0
 273 87 301 82 340 79 c 0
 361 77 462 77 488 78 c 0
 553 81 588 89 618 110 c 0
 627 115 643 132 649 141 c 0
 663 162 671 189 676 223 c 0
 680 251 680 265 680 329 c 0
 680 392 680 405 676 433 c 0
 671 467 663 494 649 516 c 0
 643 524 627 541 618 546 c 0
 588 566 553 575 491 578 c 0
EndSplineSet
EndChar

StartChar: c
Encoding: 99 99 65
Width: 859
VWidth: 910
Flags: HW
LayerCount: 2
Fore
SplineSet
370 619 m 0
 385 620 535 619 551 618 c 0
 612 614 658 608 683 598 c 0
 727 581 755 543 758 502 c 0
 759 487 755 478 746 469 c 0
 738 460 729 456 717 456 c 0
 704 456 695 460 687 468 c 0
 680 476 675 487 675 496 c 0
 675 504 668 514 657 519 c 0
 641 526 600 532 543 535 c 0
 513 537 371 537 351 535 c 0
 287 530 250 518 224 493 c 0
 198 468 185 435 180 375 c 0
 178 355 178 259 180 240 c 0
 185 179 198 146 224 121 c 0
 250 96 287 84 351 79 c 0
 371 77 513 77 543 79 c 0
 600 82 641 89 657 96 c 0
 668 101 675 110 675 118 c 0
 675 127 680 139 687 147 c 0
 695 155 704 158 717 158 c 0
 729 158 738 155 746 146 c 0
 755 137 759 127 758 112 c 0
 757 95 751 75 740 60 c 0
 730 46 712 31 695 23 c 0
 667 8 623 0 548 -4 c 0
 518 -6 369 -6 347 -4 c 0
 267 1 216 20 174 55 c 0
 138 86 113 131 103 188 c 0
 97 223 96 237 96 308 c 0
 96 378 97 392 103 427 c 0
 115 494 144 541 194 574 c 0
 236 602 288 615 370 619 c 0
EndSplineSet
EndChar

StartChar: d
Encoding: 100 100 66
Width: 859
VWidth: 910
Flags: HW
LayerCount: 2
Fore
SplineSet
706 817 m 0
 729 823 752 809 757 786 c 0
 758 780 758 39 757 33 c 0
 753 18 742 6 727 1 c 0
 714 -2 700 2 689 10 c 0
 685 14 679 22 678 27 c 0
 677 29 677 31 676 31 c 2
 676 31 671 28 665 25 c 0
 628 7 578 -2 505 -5 c 0
 475 -6 391 -6 366 -5 c 0
 280 -1 224 17 180 54 c 0
 149 80 127 117 115 162 c 0
 105 200 102 232 102 308 c 0
 102 383 105 414 115 452 c 0
 120 469 123 481 131 497 c 0
 162 561 219 600 303 613 c 0
 336 618 366 620 434 620 c 0
 500 620 533 619 568 614 c 0
 606 609 639 601 664 589 c 0
 669 586 674 584 675 584 c 2
 675 684 l 2
 675 770 675 782 677 787 c 0
 681 802 691 813 706 817 c 0
501 536 m 0
 474 537 391 537 367 536 c 0
 281 532 234 512 209 467 c 0
 191 436 185 395 185 308 c 0
 185 232 189 195 201 164 c 0
 217 122 251 97 304 86 c 0
 334 80 351 78 416 77 c 0
 538 76 596 83 634 102 c 0
 653 112 665 128 671 154 c 0
 676 172 675 172 675 308 c 0
 675 443 676 443 671 461 c 0
 665 487 653 502 634 512 c 0
 606 526 566 533 501 536 c 0
EndSplineSet
EndChar

StartChar: e
Encoding: 101 101 67
Width: 834
VWidth: 910
Flags: HW
LayerCount: 2
Fore
SplineSet
360 619 m 0
 364 619 388 620 414 620 c 0
 462 620 487 619 512 616 c 0
 614 606 678 563 710 482 c 0
 721 456 728 419 732 379 c 0
 734 359 735 293 733 287 c 0
 730 272 718 259 703 254 c 0
 698 253 652 253 439 253 c 2
 179 253 l 1
 179 246 l 2
 179 236 182 210 184 197 c 0
 197 120 239 87 339 79 c 0
 345 78 377 78 410 77 c 0
 519 76 584 81 622 90 c 0
 637 94 649 103 650 110 c 0
 652 125 652 128 656 133 c 0
 660 141 666 146 675 151 c 0
 681 154 683 155 693 155 c 0
 702 155 703 154 709 151 c 0
 718 146 724 141 728 133 c 0
 733 125 734 117 734 107 c 0
 732 83 722 62 703 44 c 0
 693 33 685 27 670 20 c 0
 657 15 646 10 629 7 c 0
 582 -3 522 -6 410 -5 c 0
 375 -4 340 -5 334 -4 c 0
 265 1 217 17 180 44 c 0
 137 77 112 122 101 187 c 0
 97 213 97 227 96 282 c 0
 95 369 97 406 108 450 c 0
 113 469 118 479 127 497 c 0
 160 565 219 603 309 615 c 0
 323 617 345 619 360 619 c 0
492 535 m 0
 477 536 377 537 356 536 c 0
 288 532 247 519 221 491 c 0
 196 464 182 422 180 360 c 0
 179 353 179 345 178 341 c 2
 178 336 l 1
 414 336 l 1
 651 336 l 1
 650 345 l 1
 647 412 639 448 620 478 c 0
 614 486 599 502 590 507 c 0
 566 523 537 531 492 535 c 0
EndSplineSet
EndChar

StartChar: f
Encoding: 102 102 68
Width: 631
VWidth: 910
Flags: HW
LayerCount: 2
Fore
SplineSet
323 824 m 0
 336 825 393 824 406 823 c 0
 480 815 528 789 559 743 c 0
 585 704 599 651 604 577 c 0
 605 569 605 545 606 522 c 0
 606 476 606 472 601 462 c 0
 597 454 591 449 582 444 c 0
 576 441 574 441 565 441 c 0
 555 441 554 441 548 444 c 0
 544 446 539 449 536 451 c 0
 531 456 526 466 524 474 c 0
 524 477 523 496 523 518 c 0
 522 567 521 594 516 622 c 0
 510 660 498 690 482 707 c 0
 466 725 438 735 396 740 c 0
 381 742 327 742 312 740 c 0
 261 735 232 721 216 694 c 0
 196 659 187 612 185 524 c 2
 185 493 l 1
 316 493 l 1
 448 493 l 1
 452 491 l 2
 464 486 474 476 478 464 c 0
 480 458 480 446 478 440 c 0
 474 428 464 418 452 413 c 2
 448 411 l 1
 316 411 l 1
 185 411 l 1
 185 224 l 2
 185 89 185 37 184 33 c 0
 180 14 162 0 144 0 c 0
 128 0 112 10 106 25 c 2
 103 31 l 1
 103 294 l 2
 103 500 103 561 104 575 c 0
 109 651 123 704 149 743 c 0
 183 793 237 819 323 824 c 0
EndSplineSet
EndChar

StartChar: g
Encoding: 103 103 69
Width: 859
VWidth: 910
Flags: HW
LayerCount: 2
Fore
SplineSet
370 619 m 0
 385 620 535 619 551 618 c 0
 608 615 646 610 676 600 c 2
 684 598 l 1
 688 603 l 2
 698 613 713 617 727 613 c 0
 742 608 754 596 757 581 c 0
 758 577 758 490 758 246 c 2
 757 -84 l 1
 755 -94 l 2
 749 -120 738 -140 721 -157 c 0
 703 -175 685 -184 658 -192 c 0
 628 -200 593 -205 540 -208 c 0
 512 -210 348 -210 321 -208 c 0
 267 -205 232 -200 202 -192 c 0
 175 -184 157 -175 139 -157 c 0
 117 -135 104 -105 102 -74 c 0
 102 -61 102 -56 107 -47 c 0
 111 -39 119 -33 127 -29 c 0
 132 -26 133 -25 144 -25 c 0
 154 -25 155 -26 160 -29 c 0
 168 -33 175 -39 179 -47 c 0
 183 -53 185 -59 185 -69 c 0
 187 -84 195 -99 208 -106 c 0
 224 -116 266 -122 326 -126 c 0
 353 -128 507 -128 535 -126 c 0
 594 -122 637 -116 653 -106 c 0
 662 -101 669 -92 673 -81 c 0
 675 -76 674 -75 675 -31 c 2
 675 14 l 1
 674 14 l 1
 640 4 605 -1 548 -4 c 0
 518 -6 369 -6 347 -4 c 0
 267 1 216 20 174 55 c 0
 138 86 113 131 103 188 c 0
 97 223 96 237 96 308 c 0
 96 378 97 392 103 427 c 0
 115 494 144 541 194 574 c 0
 236 602 288 615 370 619 c 0
546 535 m 0
 530 536 389 537 374 536 c 0
 328 534 299 530 274 522 c 0
 220 505 193 469 184 405 c 0
 179 377 179 364 179 308 c 0
 179 252 179 237 184 210 c 0
 191 154 213 121 254 100 c 0
 277 89 307 83 351 79 c 0
 371 77 513 77 543 79 c 0
 600 82 641 89 657 96 c 0
 663 100 671 105 674 110 c 2
 675 115 l 1
 675 308 l 1
 675 500 l 1
 674 504 l 2
 671 509 663 515 657 519 c 0
 641 526 601 532 546 535 c 0
EndSplineSet
EndChar

StartChar: h
Encoding: 104 104 70
Width: 859
VWidth: 910
Flags: HW
LayerCount: 2
Fore
SplineSet
133 817 m 0
 156 823 179 809 184 786 c 0
 185 782 185 755 185 692 c 2
 185 601 l 1
 193 603 l 2
 219 610 258 615 311 618 c 0
 341 620 491 620 512 618 c 0
 590 613 640 596 681 561 c 0
 720 528 743 483 753 418 c 0
 758 386 757 389 758 208 c 0
 758 82 758 38 757 34 c 0
 752 10 729 -4 707 2 c 0
 692 5 683 13 678 27 c 2
 676 33 l 1
 675 201 l 2
 674 381 675 379 670 411 c 0
 665 447 652 475 632 493 c 0
 606 518 569 530 507 535 c 0
 485 537 346 537 316 535 c 0
 253 532 214 526 199 517 c 0
 194 514 189 509 187 505 c 0
 185 501 185 491 185 269 c 0
 185 101 185 37 184 33 c 0
 180 15 163 0 144 0 c 0
 125 0 109 13 104 32 c 0
 102 37 102 78 102 410 c 0
 102 742 102 782 104 787 c 0
 108 802 118 813 133 817 c 0
EndSplineSet
EndChar

StartChar: i
Encoding: 105 105 71
Width: 455
VWidth: 910
Flags: HW
LayerCount: 2
Fore
SplineSet
217 756 m 0
 247 764 275 738 269 708 c 0
 264 685 240 671 218 677 c 0
 196 682 182 703 187 725 c 0
 191 740 202 752 217 756 c 0
217 613 m 0
 240 619 264 605 269 582 c 0
 270 576 270 39 269 33 c 0
 265 14 246 0 228 0 c 0
 212 0 196 10 190 25 c 2
 188 31 l 1
 188 308 l 1
 188 584 l 1
 190 591 l 2
 195 602 206 610 217 613 c 0
EndSplineSet
EndChar

StartChar: j
Encoding: 106 106 72
Width: 607
VWidth: 910
Flags: HW
LayerCount: 2
Fore
SplineSet
453 756 m 0
 483 764 511 738 505 708 c 0
 500 685 476 671 454 677 c 0
 432 682 418 703 423 725 c 0
 427 740 438 752 453 756 c 0
453 613 m 0
 476 619 500 605 505 582 c 0
 506 578 506 519 506 365 c 0
 506 165 505 118 503 82 c 0
 496 -35 470 -114 426 -153 c 0
 411 -168 398 -176 378 -185 c 0
 323 -211 242 -217 176 -201 c 0
 113 -186 69 -154 44 -104 c 0
 21 -59 8 2 3 82 c 0
 0 128 -1 219 2 228 c 0
 9 260 48 270 71 248 c 0
 76 243 80 234 82 227 c 0
 83 224 83 210 83 191 c 0
 83 70 92 -4 112 -54 c 0
 120 -74 127 -85 140 -96 c 0
 168 -120 220 -132 276 -127 c 0
 322 -123 357 -109 377 -85 c 0
 401 -57 416 5 421 91 c 0
 422 100 421 110 422 114 c 0
 422 117 422 223 423 351 c 2
 424 584 l 1
 427 591 l 2
 432 602 442 610 453 613 c 0
EndSplineSet
EndChar

StartChar: k
Encoding: 107 107 73
Width: 809
VWidth: 910
Flags: HW
LayerCount: 2
Fore
SplineSet
133 817 m 0
 156 823 179 809 184 786 c 0
 185 782 185 724 185 573 c 0
 185 384 185 366 187 366 c 1
 187 367 302 431 442 509 c 0
 582 587 699 652 701 653 c 0
 711 658 724 657 735 652 c 0
 741 649 750 640 753 634 c 0
 760 622 760 606 753 594 c 0
 748 583 752 588 563 482 c 0
 467 428 388 383 388 382 c 2
 388 382 468 313 565 228 c 0
 663 143 744 72 747 69 c 0
 769 46 757 8 725 1 c 0
 716 -1 702 1 694 6 c 0
 691 8 323 328 313 338 c 2
 310 340 l 1
 248 306 l 1
 186 270 l 1
 185 151 l 2
 185 68 184 32 183 29 c 0
 176 7 155 -4 134 2 c 0
 119 6 108 17 104 32 c 0
 102 37 102 78 102 410 c 0
 102 742 102 782 104 787 c 0
 108 802 118 813 133 817 c 0
EndSplineSet
EndChar

StartChar: l
Encoding: 108 108 74
Width: 455
VWidth: 910
Flags: HW
LayerCount: 2
Fore
SplineSet
218 817 m 0
 241 823 264 809 269 786 c 0
 270 780 270 39 269 33 c 0
 265 15 247 0 228 0 c 0
 209 0 193 13 188 32 c 0
 186 37 187 78 187 410 c 0
 187 742 186 782 188 787 c 0
 192 802 203 813 218 817 c 0
EndSplineSet
EndChar

StartChar: m
Encoding: 109 109 75
Width: 1213
VWidth: 910
Flags: HW
LayerCount: 2
Fore
SplineSet
319 619 m 0
 336 620 407 620 422 619 c 0
 494 615 542 599 579 564 c 0
 586 558 598 543 603 536 c 2
 606 531 l 1
 611 538 l 2
 628 562 650 579 678 593 c 0
 700 604 722 610 750 614 c 0
 778 619 787 620 839 620 c 0
 890 620 899 619 928 614 c 0
 955 610 977 604 999 593 c 0
 1029 578 1051 560 1069 534 c 0
 1093 499 1105 457 1110 391 c 0
 1112 375 1113 41 1111 34 c 0
 1106 10 1083 -4 1061 2 c 0
 1046 5 1037 13 1032 27 c 2
 1030 33 l 1
 1029 202 l 2
 1028 378 1029 380 1025 411 c 0
 1018 468 999 502 965 519 c 0
 939 532 903 537 839 537 c 0
 774 537 739 532 714 519 c 0
 679 502 660 468 653 411 c 0
 649 380 649 378 648 202 c 0
 648 84 647 32 646 29 c 0
 639 7 618 -4 597 2 c 0
 582 5 573 13 568 27 c 2
 566 33 l 1
 565 202 l 2
 564 374 565 378 561 408 c 0
 556 458 538 494 513 512 c 0
 490 527 464 533 415 536 c 0
 391 537 319 537 301 535 c 0
 241 530 211 517 198 492 c 0
 192 479 188 465 186 441 c 0
 185 432 185 358 185 232 c 0
 185 91 185 37 184 33 c 0
 180 15 163 0 144 0 c 0
 125 0 109 13 104 32 c 0
 102 37 102 68 102 308 c 0
 102 547 102 578 104 583 c 0
 112 615 150 626 173 602 c 0
 176 599 178 596 179 593 c 2
 181 589 l 1
 189 593 l 2
 220 608 262 617 319 619 c 0
EndSplineSet
EndChar

StartChar: n
Encoding: 110 110 76
Width: 859
VWidth: 910
Flags: HW
LayerCount: 2
Fore
SplineSet
361 619 m 0
 380 620 502 619 514 618 c 0
 590 612 641 596 681 561 c 0
 720 528 743 483 753 418 c 0
 758 386 757 389 758 208 c 0
 758 82 758 38 757 34 c 0
 752 10 729 -4 707 2 c 0
 692 5 683 13 678 27 c 2
 676 33 l 1
 675 201 l 2
 674 381 675 379 670 411 c 0
 665 447 652 475 632 493 c 0
 606 518 569 530 507 535 c 0
 485 537 365 537 340 535 c 0
 318 534 293 532 279 529 c 0
 248 524 223 513 211 503 c 0
 199 491 191 471 187 446 c 0
 186 440 186 394 185 236 c 0
 185 91 184 32 183 29 c 0
 174 4 147 -8 124 5 c 0
 118 8 110 16 107 22 c 0
 102 32 102 11 102 308 c 0
 102 547 102 578 104 583 c 0
 109 602 125 614 144 614 c 0
 159 614 175 605 181 591 c 0
 182 587 184 584 185 584 c 1
 185 585 190 587 196 590 c 0
 235 607 285 616 361 619 c 0
EndSplineSet
EndChar

StartChar: o
Encoding: 111 111 77
Width: 961
VWidth: 910
Flags: HW
LayerCount: 2
Fore
SplineSet
407 619 m 0
 426 620 571 619 585 618 c 0
 683 612 743 597 792 563 c 0
 853 522 884 455 889 351 c 0
 890 328 890 286 889 264 c 0
 882 129 832 55 726 20 c 0
 688 7 646 0 583 -4 c 0
 558 -6 403 -6 378 -4 c 0
 279 2 219 18 169 52 c 0
 108 93 77 159 72 264 c 0
 71 286 71 328 72 351 c 0
 79 485 129 559 235 594 c 0
 280 609 330 616 407 619 c 0
558 536 m 0
 530 537 428 537 400 536 c 0
 328 533 281 525 244 509 c 0
 184 484 160 440 155 344 c 0
 154 322 154 292 155 271 c 0
 159 202 171 161 198 134 c 0
 229 104 284 85 366 80 c 0
 420 76 541 76 596 80 c 0
 646 84 686 92 718 106 c 0
 765 126 790 158 800 217 c 0
 809 266 809 349 800 399 c 0
 794 435 782 461 763 481 c 0
 732 511 677 529 596 534 c 0
 588 535 571 535 558 536 c 0
EndSplineSet
EndChar

StartChar: p
Encoding: 112 112 78
Width: 834
VWidth: 910
Flags: HW
LayerCount: 2
Fore
SplineSet
342 619 m 0
 367 620 489 619 504 618 c 0
 570 613 615 601 652 579 c 0
 710 544 742 492 753 411 c 0
 758 383 758 370 758 308 c 0
 758 245 758 232 753 204 c 0
 742 123 710 70 652 35 c 0
 615 12 569 1 502 -4 c 0
 481 -6 351 -6 328 -4 c 0
 269 0 230 8 198 23 c 0
 192 26 187 27 186 28 c 0
 185 28 185 8 185 -69 c 0
 185 -138 185 -168 184 -172 c 0
 180 -190 163 -205 144 -205 c 0
 125 -205 109 -192 104 -173 c 0
 102 -168 102 -127 102 205 c 0
 102 537 102 578 104 583 c 0
 112 615 150 626 173 602 c 0
 176 599 179 595 180 591 c 2
 183 585 l 1
 191 589 l 2
 226 606 276 616 342 619 c 0
501 535 m 0
 485 536 371 537 347 536 c 0
 310 534 280 530 258 525 c 0
 220 515 204 503 194 477 c 0
 190 466 187 451 186 436 c 0
 185 420 185 194 186 178 c 0
 188 156 193 137 200 124 c 0
 202 121 206 116 210 112 c 0
 219 103 234 95 258 89 c 0
 294 80 340 76 434 77 c 0
 488 78 502 79 528 82 c 0
 594 90 634 113 654 155 c 0
 663 171 667 189 671 214 c 0
 675 239 674 254 674 308 c 0
 674 361 675 375 671 400 c 0
 662 467 634 504 578 522 c 0
 557 529 534 532 501 535 c 0
EndSplineSet
EndChar

StartChar: q
Encoding: 113 113 79
Width: 834
VWidth: 910
Flags: HW
LayerCount: 2
Fore
SplineSet
356 619 m 0
 371 620 499 619 511 618 c 0
 556 614 590 609 617 600 c 0
 627 596 651 586 652 585 c 0
 652 584 653 587 655 591 c 0
 667 616 701 623 722 603 c 0
 727 598 731 589 733 582 c 0
 734 576 734 -166 733 -172 c 0
 729 -190 712 -205 693 -205 c 0
 674 -205 658 -192 653 -173 c 0
 651 -168 651 -155 651 -70 c 2
 651 28 l 2
 650 28 645 27 639 24 c 0
 606 9 567 0 509 -4 c 0
 485 -6 354 -6 333 -4 c 0
 273 1 233 10 198 27 c 0
 170 41 147 59 129 82 c 0
 102 117 84 163 79 222 c 0
 75 260 75 354 79 392 c 0
 83 432 92 468 106 496 c 0
 127 537 156 567 198 587 c 0
 238 607 283 616 356 619 c 0
486 536 m 0
 473 537 441 537 415 537 c 0
 363 537 362 537 338 535 c 0
 252 530 204 507 181 461 c 0
 170 438 164 413 161 373 c 0
 159 353 159 261 161 242 c 0
 164 201 170 177 181 155 c 0
 204 108 250 85 336 79 c 0
 356 77 451 77 482 78 c 0
 548 81 584 87 612 102 c 0
 621 107 630 116 635 124 c 0
 642 137 648 156 650 178 c 0
 651 194 651 420 650 436 c 0
 648 458 642 478 635 491 c 0
 630 499 621 507 612 512 c 0
 585 527 547 533 486 536 c 0
EndSplineSet
EndChar

StartChar: r
Encoding: 114 114 80
Width: 758
VWidth: 910
Flags: HW
LayerCount: 2
Fore
SplineSet
340 619 m 0
 360 620 476 620 501 619 c 0
 608 615 650 606 681 580 c 0
 700 564 710 533 705 512 c 0
 701 496 689 485 673 482 c 0
 651 478 630 492 625 514 c 0
 624 519 624 519 619 522 c 0
 606 527 574 532 524 535 c 0
 496 537 371 537 341 536 c 0
 290 534 261 530 236 522 c 0
 221 517 214 512 207 505 c 0
 197 496 192 482 187 460 c 0
 186 452 186 432 185 242 c 0
 185 93 184 32 183 29 c 0
 177 12 161 0 144 0 c 0
 128 0 112 10 106 25 c 2
 103 31 l 1
 102 304 l 2
 102 496 102 578 103 582 c 0
 108 604 132 618 154 613 c 0
 164 609 175 602 179 593 c 0
 180 591 182 589 182 589 c 1
 182 589 185 591 190 593 c 0
 224 608 274 617 340 619 c 0
EndSplineSet
EndChar

StartChar: s
Encoding: 115 115 81
Width: 859
VWidth: 910
Flags: HW
LayerCount: 2
Fore
SplineSet
346 619 m 0
 371 620 529 619 551 618 c 0
 612 614 658 608 683 598 c 0
 727 581 755 543 758 502 c 0
 759 487 755 478 746 469 c 0
 738 460 729 456 717 456 c 0
 704 456 695 460 687 468 c 0
 680 476 675 487 675 496 c 0
 675 504 668 514 657 519 c 0
 641 526 600 532 543 535 c 0
 513 537 357 537 332 535 c 0
 280 532 247 527 222 517 c 0
 217 515 210 513 208 512 c 0
 191 501 180 479 178 450 c 0
 177 433 181 417 188 404 c 0
 193 396 205 384 214 378 c 0
 249 355 306 342 371 344 c 0
 391 345 404 346 434 350 c 0
 494 357 552 353 603 340 c 0
 689 319 742 270 755 202 c 0
 758 188 759 166 757 152 c 0
 753 116 741 85 721 60 c 0
 690 22 634 2 533 -4 c 0
 492 -7 337 -6 293 -3 c 0
 243 1 199 8 178 16 c 0
 140 31 114 59 105 94 c 0
 102 105 101 119 103 126 c 0
 107 141 117 152 132 157 c 0
 137 158 150 158 155 157 c 0
 172 152 185 134 185 118 c 0
 185 110 192 101 203 96 c 0
 218 90 252 83 298 80 c 0
 342 77 488 76 528 79 c 0
 584 83 622 90 643 101 c 0
 662 111 672 134 675 165 c 0
 676 190 670 209 654 225 c 0
 634 245 603 259 560 265 c 0
 537 270 525 269 495 269 c 0
 466 269 463 270 423 265 c 0
 332 255 246 267 188 298 c 0
 139 323 108 362 98 412 c 0
 96 421 96 425 96 444 c 0
 96 466 97 473 102 492 c 0
 113 537 140 571 178 589 c 0
 215 606 270 616 346 619 c 0
EndSplineSet
EndChar

StartChar: t
Encoding: 116 116 82
Width: 607
VWidth: 910
Flags: HW
LayerCount: 2
Fore
SplineSet
293 817 m 0
 316 823 339 809 344 786 c 0
 345 782 345 756 345 698 c 2
 345 614 l 1
 432 614 l 2
 502 614 520 614 525 613 c 0
 543 608 556 591 556 573 c 0
 556 554 543 537 525 532 c 0
 520 531 502 532 432 532 c 2
 345 532 l 1
 345 285 l 2
 345 105 345 37 344 33 c 0
 340 15 323 0 304 0 c 0
 285 0 269 13 264 32 c 0
 262 37 262 65 262 284 c 2
 262 532 l 1
 175 532 l 2
 105 532 87 531 83 532 c 0
 64 537 51 554 51 573 c 0
 51 591 64 608 83 613 c 0
 87 614 105 614 175 614 c 2
 262 614 l 1
 262 698 l 2
 262 771 262 782 264 787 c 0
 268 802 278 813 293 817 c 0
EndSplineSet
EndChar

StartChar: u
Encoding: 117 117 83
Width: 859
VWidth: 910
Flags: HW
LayerCount: 2
Fore
SplineSet
133 613 m 0
 154 619 176 607 183 585 c 0
 184 582 185 531 185 414 c 0
 186 233 185 236 190 204 c 0
 195 168 208 139 228 121 c 0
 254 96 291 84 353 79 c 0
 375 77 496 77 521 79 c 0
 543 80 567 83 581 86 c 0
 612 91 637 101 649 111 c 0
 661 123 670 143 674 168 c 0
 675 174 674 221 675 380 c 2
 676 583 l 1
 678 587 l 2
 683 601 692 610 707 613 c 0
 729 619 752 605 757 582 c 0
 758 576 758 39 757 33 c 0
 753 15 736 0 717 0 c 0
 702 0 686 9 680 24 c 0
 678 28 676 30 676 30 c 2
 675 29 670 28 664 25 c 0
 629 10 587 0 525 -4 c 0
 500 -6 370 -6 349 -4 c 0
 271 1 220 19 179 54 c 0
 140 87 117 132 107 197 c 0
 102 229 103 226 102 407 c 0
 102 530 102 578 103 582 c 0
 106 597 118 609 133 613 c 0
EndSplineSet
EndChar

StartChar: v
Encoding: 118 118 84
Width: 809
VWidth: 910
Flags: HW
LayerCount: 2
Fore
SplineSet
107 613 m 0
 116 615 128 614 137 609 c 0
 143 606 150 598 154 593 c 0
 155 590 212 475 279 336 c 2
 401 84 l 1
 405 84 l 1
 408 84 l 1
 531 336 l 2
 598 475 654 590 655 593 c 0
 659 598 666 606 672 609 c 0
 699 624 733 604 733 573 c 0
 733 569 733 565 732 563 c 0
 730 558 472 23 467 17 c 0
 463 12 455 6 448 3 c 0
 443 1 442 1 405 1 c 0
 367 1 366 1 361 3 c 0
 354 6 346 12 342 17 c 0
 337 23 79 558 77 563 c 0
 75 568 76 579 78 585 c 0
 83 599 93 608 107 613 c 0
EndSplineSet
EndChar

StartChar: w
Encoding: 119 119 85
Width: 1264
VWidth: 910
Flags: HW
LayerCount: 2
Fore
SplineSet
56 613 m 0
 71 618 85 613 96 602 c 0
 101 597 103 594 117 566 c 0
 125 549 179 433 238 309 c 2
 347 84 l 1
 350 83 l 1
 353 83 l 1
 474 339 l 2
 546 488 598 596 600 599 c 0
 602 601 605 604 608 606 c 0
 625 618 647 617 662 602 c 0
 667 597 670 591 789 340 c 2
 912 83 l 1
 915 83 l 1
 918 84 l 1
 1026 309 l 2
 1085 433 1140 549 1148 566 c 0
 1162 594 1163 597 1168 602 c 0
 1183 617 1205 618 1222 606 c 0
 1235 596 1242 578 1237 563 c 0
 1236 557 1202 486 982 25 c 0
 976 12 967 5 954 1 c 0
 947 -1 883 -1 876 1 c 0
 869 4 861 9 856 14 c 0
 851 19 843 35 742 248 c 2
 633 477 l 1
 631 474 l 2
 630 472 581 370 522 245 c 0
 422 35 414 19 409 14 c 0
 404 9 396 4 389 1 c 0
 382 -1 317 -1 310 1 c 0
 298 5 288 13 283 25 c 0
 281 29 223 150 154 295 c 0
 16 584 23 566 26 579 c 0
 29 595 41 609 56 613 c 0
EndSplineSet
EndChar

StartChar: x
Encoding: 120 120 86
Width: 809
VWidth: 910
Flags: HW
LayerCount: 2
Fore
SplineSet
122 613 m 0
 128 615 137 614 143 613 c 0
 154 609 152 613 281 489 c 0
 348 425 404 372 404 372 c 1
 404 372 461 424 528 489 c 0
 658 613 655 609 666 613 c 0
 676 615 687 614 696 609 c 0
 711 602 720 582 717 567 c 0
 716 560 713 551 708 546 c 0
 706 544 654 494 592 435 c 0
 530 376 475 324 471 321 c 2
 465 314 l 1
 594 191 l 2
 679 110 724 67 726 64 c 0
 731 58 733 49 733 42 c 0
 733 7 693 -12 666 9 c 0
 663 11 603 68 533 135 c 2
 405 258 l 1
 276 135 l 2
 205 67 145 10 142 8 c 0
 136 3 128 1 120 0 c 0
 105 -1 91 6 83 19 c 0
 75 33 75 51 83 64 c 0
 85 67 130 110 215 191 c 2
 344 314 l 1
 338 321 l 2
 334 324 280 376 218 435 c 0
 156 494 103 544 101 546 c 0
 94 555 90 569 92 580 c 0
 95 595 107 609 122 613 c 0
EndSplineSet
EndChar

StartChar: y
Encoding: 121 121 87
Width: 809
VWidth: 910
Flags: HW
LayerCount: 2
Fore
SplineSet
107 613 m 0
 116 615 128 614 137 609 c 0
 149 604 141 618 279 363 c 0
 396 144 405 128 406 131 c 0
 438 192 658 597 660 600 c 0
 664 605 671 610 677 612 c 0
 699 620 724 608 731 585 c 0
 733 578 734 568 731 562 c 0
 730 557 332 -183 327 -188 c 0
 320 -198 307 -205 294 -205 c 0
 279 -205 263 -195 257 -180 c 0
 254 -175 254 -173 253 -165 c 0
 253 -159 253 -155 255 -151 c 0
 256 -148 279 -104 307 -53 c 0
 334 -2 357 41 357 42 c 2
 357 42 294 158 218 299 c 0
 142 440 78 559 78 562 c 0
 77 565 76 569 76 573 c 0
 76 591 89 608 107 613 c 0
EndSplineSet
EndChar

StartChar: z
Encoding: 122 122 88
Width: 809
VWidth: 910
Flags: HW
LayerCount: 2
Fore
SplineSet
107 613 m 0
 111 614 172 614 404 614 c 0
 721 614 701 615 711 610 c 0
 732 599 739 570 726 550 c 0
 723 547 638 467 473 314 c 2
 224 84 l 1
 462 83 l 2
 633 83 701 82 704 81 c 0
 709 79 715 76 720 72 c 0
 740 53 736 18 711 5 c 0
 701 0 721 0 405 0 c 0
 88 0 108 0 98 5 c 0
 77 16 70 45 83 65 c 0
 86 68 171 147 336 300 c 2
 585 532 l 1
 347 532 l 2
 176 532 109 532 106 533 c 0
 88 539 76 554 76 573 c 0
 76 591 89 608 107 613 c 0
EndSplineSet
EndChar

StartChar: braceleft
Encoding: 123 123 89
Width: 455
VWidth: 910
Flags: HW
LayerCount: 2
Fore
SplineSet
319 872 m 0
 334 874 357 872 371 868 c 0
 395 863 408 841 402 818 c 0
 399 806 392 796 380 791 c 0
 375 788 373 788 364 788 c 0
 358 788 351 788 347 789 c 0
 328 793 309 787 294 773 c 0
 287 765 282 756 278 743 c 0
 269 717 266 684 266 615 c 0
 266 549 263 518 255 485 c 0
 248 456 236 434 218 412 c 2
 217 410 l 1
 218 407 l 2
 236 385 248 363 255 334 c 0
 263 301 266 270 266 204 c 0
 266 135 269 102 278 76 c 0
 282 63 287 54 294 46 c 0
 309 32 328 26 347 30 c 0
 351 31 358 32 364 32 c 0
 373 32 375 31 380 28 c 0
 387 24 396 17 399 11 c 0
 410 -9 402 -35 382 -46 c 0
 367 -54 334 -56 309 -51 c 0
 289 -47 269 -38 253 -27 c 0
 243 -20 227 -5 220 5 c 0
 207 24 196 51 191 78 c 0
 185 109 184 123 183 197 c 0
 183 231 182 263 181 269 c 0
 178 303 173 325 165 341 c 0
 160 348 149 359 141 364 c 0
 136 367 135 367 129 366 c 0
 109 363 80 367 68 373 c 0
 62 376 54 385 51 390 c 0
 44 402 44 418 51 430 c 0
 54 435 62 443 68 446 c 0
 80 452 109 456 129 453 c 0
 135 452 136 452 141 455 c 0
 149 460 160 471 165 479 c 0
 173 494 178 516 181 550 c 0
 182 556 183 589 183 623 c 0
 184 697 185 710 191 742 c 0
 196 768 207 795 220 814 c 0
 227 824 243 840 253 847 c 0
 272 860 296 869 319 872 c 0
EndSplineSet
EndChar

StartChar: bar
Encoding: 124 124 90
Width: 506
VWidth: 910
Flags: HW
LayerCount: 2
Fore
SplineSet
243 817 m 0
 266 823 289 809 294 786 c 0
 295 780 295 39 294 33 c 0
 290 15 273 0 254 0 c 0
 235 0 219 13 214 32 c 0
 212 37 212 78 212 410 c 0
 212 742 212 782 214 787 c 0
 218 802 228 813 243 817 c 0
EndSplineSet
EndChar

StartChar: braceright
Encoding: 125 125 91
Width: 455
VWidth: 910
Flags: HW
LayerCount: 2
Fore
SplineSet
92 873 m 0
 101 874 127 873 137 871 c 0
 183 862 219 834 240 792 c 0
 253 767 260 736 264 695 c 0
 265 689 266 657 266 623 c 0
 267 561 267 548 270 526 c 0
 275 490 288 467 308 456 c 0
 313 453 314 452 317 453 c 0
 325 455 346 455 355 454 c 0
 368 452 382 450 387 446 c 0
 393 443 401 435 404 430 c 0
 411 418 411 402 404 390 c 0
 401 385 393 376 387 373 c 0
 382 369 368 367 355 365 c 0
 346 364 325 364 317 366 c 0
 314 367 313 366 308 363 c 0
 288 352 275 329 270 293 c 0
 267 271 267 259 266 197 c 0
 266 163 265 130 264 125 c 0
 260 83 253 52 240 27 c 0
 215 -21 169 -52 116 -55 c 0
 96 -56 74 -52 62 -46 c 0
 42 -35 35 -9 46 11 c 0
 49 17 58 24 65 28 c 0
 70 31 71 31 81 31 c 0
 87 31 93 31 98 30 c 0
 115 25 137 32 151 45 c 0
 168 60 176 85 181 131 c 0
 182 137 183 170 183 204 c 0
 183 238 184 271 185 277 c 0
 190 335 203 372 228 403 c 2
 233 410 l 1
 228 416 l 2
 203 447 190 484 185 543 c 0
 184 548 183 581 183 615 c 0
 183 649 182 682 181 688 c 0
 176 734 168 760 151 775 c 0
 137 788 115 794 98 789 c 0
 93 788 87 788 81 788 c 0
 71 788 70 788 65 791 c 0
 58 795 49 802 46 808 c 0
 34 829 42 855 63 865 c 0
 69 869 81 871 92 873 c 0
EndSplineSet
EndChar

StartChar: asciitilde
Encoding: 126 126 92
Width: 1011
VWidth: 910
Flags: HW
LayerCount: 2
Fore
SplineSet
237 471 m 0
 259 472 338 472 360 471 c 0
 412 468 447 462 476 447 c 0
 490 440 499 434 508 424 c 0
 527 405 540 377 545 342 c 0
 545 337 546 323 547 311 c 0
 548 286 549 278 553 267 c 0
 558 250 565 243 586 236 c 0
 611 228 645 225 713 225 c 0
 780 225 813 228 838 236 c 0
 859 243 867 250 872 267 c 0
 875 276 876 284 877 303 c 0
 878 318 880 322 885 330 c 0
 894 344 913 352 929 348 c 0
 944 343 955 331 959 316 c 0
 961 306 961 281 956 261 c 0
 949 224 932 194 907 177 c 0
 898 171 881 163 869 159 c 0
 833 146 795 142 713 142 c 0
 630 142 591 146 555 159 c 0
 543 163 527 171 518 177 c 0
 499 191 483 213 475 238 c 0
 468 258 465 273 464 303 c 0
 463 328 463 337 459 349 c 0
 454 365 446 372 425 379 c 0
 400 387 366 390 299 390 c 0
 231 390 198 387 173 379 c 0
 152 372 144 365 139 349 c 0
 136 339 135 330 134 315 c 0
 134 309 133 302 133 299 c 0
 129 281 112 266 93 266 c 0
 74 266 58 279 53 298 c 0
 48 313 53 350 61 375 c 0
 70 401 85 423 105 437 c 0
 134 457 177 468 237 471 c 0
EndSplineSet
EndChar

StartChar: Adieresis
Encoding: 196 196 93
Width: 961
VWidth: 910
Flags: HW
LayerCount: 2
Fore
SplineSet
413 952 m 0
 435 957 457 944 462 921 c 0
 469 896 449 870 422 870 c 0
 396 870 376 896 382 921 c 0
 387 936 398 948 413 952 c 0
529 952 m 0
 551 957 573 944 578 921 c 0
 585 896 565 870 538 870 c 0
 512 870 492 896 498 921 c 0
 503 936 514 948 529 952 c 0
441 818 m 0
 447 819 514 819 520 818 c 0
 527 815 535 811 540 806 c 0
 545 801 553 784 714 428 c 0
 807 223 883 54 884 52 c 0
 886 46 885 35 883 29 c 0
 877 8 855 -4 834 2 c 0
 821 5 812 11 806 25 c 0
 804 30 776 89 746 156 c 2
 692 277 l 1
 481 277 l 1
 269 277 l 1
 215 156 l 2
 185 89 158 30 156 25 c 0
 150 11 140 5 127 2 c 0
 106 -4 84 8 78 29 c 0
 76 35 75 46 77 52 c 0
 78 54 155 223 248 428 c 0
 409 784 416 801 421 806 c 0
 426 811 434 815 441 818 c 0
568 549 m 0
 487 727 483 736 481 736 c 0
 479 736 474 727 393 549 c 0
 347 446 308 360 308 360 c 2
 308 359 375 360 481 360 c 0
 587 360 654 359 654 360 c 2
 654 360 614 446 568 549 c 0
EndSplineSet
EndChar

StartChar: Ccedilla
Encoding: 199 199 94
Width: 910
VWidth: 910
Flags: HW
LayerCount: 2
Fore
SplineSet
397 824 m 0
 417 825 559 824 584 823 c 0
 671 818 729 808 763 792 c 0
 777 785 788 776 799 765 c 0
 818 746 831 723 836 697 c 0
 839 686 840 671 838 664 c 0
 835 650 829 639 816 634 c 0
 809 630 808 631 798 631 c 0
 787 631 787 630 780 634 c 0
 771 638 766 645 761 652 c 0
 758 658 757 661 756 672 c 0
 754 688 750 698 739 709 c 0
 727 719 709 726 676 731 c 0
 649 736 622 738 577 740 c 0
 544 742 408 742 387 740 c 0
 287 733 237 706 208 644 c 0
 193 610 185 570 180 504 c 0
 178 479 178 340 180 316 c 0
 182 282 185 254 189 235 c 0
 195 205 206 178 218 158 c 0
 248 108 296 85 387 79 c 0
 408 77 544 77 577 79 c 0
 671 84 719 93 739 110 c 0
 750 121 754 131 756 147 c 0
 757 158 758 161 761 167 c 0
 766 174 771 181 780 185 c 0
 787 189 787 189 798 189 c 0
 808 189 809 189 816 185 c 0
 829 180 835 170 838 156 c 0
 842 140 836 110 825 88 c 0
 810 56 778 30 743 19 c 0
 706 7 653 0 583 -4 c 0
 570 -5 561 -5 561 -5 c 2
 561 -6 562 -9 562 -13 c 0
 567 -41 559 -73 543 -96 c 0
 529 -116 509 -130 484 -136 c 0
 470 -140 454 -140 447 -138 c 0
 434 -135 423 -127 418 -115 c 0
 415 -110 415 -108 415 -97 c 0
 415 -87 415 -86 418 -81 c 0
 424 -66 440 -56 455 -56 c 0
 471 -56 480 -47 480 -31 c 0
 480 -22 477 -16 472 -11 c 0
 467 -6 463 -5 427 -5 c 0
 382 -4 357 -2 328 3 c 0
 293 8 267 15 240 29 c 0
 187 55 151 96 127 155 c 0
 111 195 102 242 97 309 c 0
 95 333 95 487 97 512 c 0
 100 558 105 588 113 620 c 0
 128 680 156 728 194 760 c 0
 242 800 303 819 397 824 c 0
EndSplineSet
EndChar

StartChar: Odieresis
Encoding: 214 214 95
Width: 1163
VWidth: 910
Flags: HW
LayerCount: 2
Fore
SplineSet
514 952 m 0
 536 957 558 944 563 921 c 0
 570 896 550 870 523 870 c 0
 497 870 477 896 483 921 c 0
 488 936 499 948 514 952 c 0
630 952 m 0
 652 957 674 944 679 921 c 0
 686 896 666 870 640 870 c 0
 613 870 593 896 599 921 c 0
 604 936 615 948 630 952 c 0
485 824 m 0
 544 826 676 825 719 822 c 0
 811 817 880 800 936 772 c 0
 1021 727 1067 656 1084 543 c 0
 1090 504 1091 480 1091 410 c 0
 1091 340 1090 315 1084 276 c 0
 1067 163 1021 92 936 47 c 0
 880 19 811 2 719 -3 c 0
 658 -7 505 -7 445 -3 c 0
 352 2 283 19 228 47 c 0
 142 92 96 163 79 276 c 0
 73 315 72 340 72 410 c 0
 72 480 73 504 79 543 c 0
 96 656 142 727 228 772 c 0
 291 804 370 820 485 824 c 0
671 741 m 0
 638 742 523 742 490 741 c 0
 380 737 309 723 257 693 c 0
 216 669 190 637 174 588 c 0
 160 547 154 492 154 410 c 0
 154 328 160 272 174 231 c 0
 185 199 198 176 218 156 c 0
 253 121 310 97 388 86 c 0
 434 79 484 77 582 77 c 0
 661 77 703 78 745 83 c 0
 812 88 868 104 907 127 c 0
 948 151 973 182 989 231 c 0
 1003 272 1009 328 1009 410 c 0
 1009 492 1003 547 989 588 c 0
 978 620 965 644 945 664 c 0
 910 699 854 722 776 733 c 0
 747 738 716 739 671 741 c 0
EndSplineSet
EndChar

StartChar: Udieresis
Encoding: 220 220 96
Width: 1011
VWidth: 910
Flags: HW
LayerCount: 2
Fore
SplineSet
438 952 m 0
 460 957 482 944 487 921 c 0
 494 896 474 870 447 870 c 0
 421 870 401 896 407 921 c 0
 412 936 423 948 438 952 c 0
554 952 m 0
 576 957 598 944 603 921 c 0
 610 896 590 870 563 870 c 0
 537 870 517 896 523 921 c 0
 528 936 539 948 554 952 c 0
133 817 m 0
 156 823 179 809 184 786 c 0
 185 782 185 720 185 555 c 0
 185 298 185 284 191 244 c 0
 203 166 238 120 304 97 c 0
 334 87 364 83 414 79 c 0
 438 77 574 77 598 79 c 0
 648 83 678 87 708 97 c 0
 774 120 809 166 821 244 c 0
 827 284 827 298 827 555 c 0
 827 756 827 782 829 787 c 0
 836 819 875 829 898 807 c 0
 903 802 907 793 909 786 c 0
 910 780 910 330 909 299 c 0
 907 264 905 244 900 218 c 0
 887 148 857 94 810 58 c 0
 763 23 703 3 618 -3 c 0
 569 -7 443 -7 394 -3 c 0
 309 3 249 23 203 58 c 0
 146 102 114 167 106 263 c 0
 102 295 102 322 102 552 c 0
 102 757 102 782 104 787 c 0
 108 802 118 813 133 817 c 0
EndSplineSet
EndChar

StartChar: adieresis
Encoding: 228 228 97
Width: 859
VWidth: 910
Flags: HW
LayerCount: 2
Fore
SplineSet
362 747 m 0
 384 752 406 739 411 716 c 0
 418 691 398 665 371 665 c 0
 345 665 325 691 331 716 c 0
 336 731 347 743 362 747 c 0
478 747 m 0
 500 752 522 739 527 716 c 0
 534 691 514 665 487 665 c 0
 461 665 441 691 447 716 c 0
 452 731 463 743 478 747 c 0
340 619 m 0
 366 620 518 619 533 618 c 0
 599 613 644 604 678 588 c 0
 684 584 693 579 698 576 c 0
 721 560 740 532 749 503 c 0
 751 497 754 489 755 484 c 2
 758 476 l 1
 758 258 l 2
 758 97 758 38 757 34 c 0
 755 26 751 18 746 12 c 0
 722 -12 681 2 676 35 c 1
 674 41 l 1
 669 37 l 2
 644 21 608 8 568 2 c 0
 534 -3 498 -5 428 -5 c 0
 343 -5 299 -3 259 5 c 0
 205 16 168 36 145 64 c 0
 116 99 102 145 102 205 c 0
 102 248 109 283 123 313 c 0
 139 346 160 367 193 382 c 0
 233 402 280 411 356 414 c 0
 385 415 433 415 440 414 c 0
 472 409 524 408 560 413 c 0
 595 417 639 428 654 436 c 0
 661 440 669 447 673 454 c 0
 675 458 675 459 674 465 c 0
 669 488 658 505 643 513 c 0
 622 524 583 531 526 535 c 0
 501 537 340 537 310 535 c 0
 246 532 211 527 196 519 c 0
 189 516 185 512 185 509 c 0
 185 507 184 504 183 501 c 0
 176 469 138 459 114 482 c 0
 106 490 101 501 102 516 c 0
 104 541 118 567 142 583 c 0
 151 589 166 597 178 602 c 0
 208 612 263 617 340 619 c 0
675 298 m 0
 675 329 675 354 674 354 c 2
 674 354 667 352 658 349 c 0
 624 339 591 333 551 329 c 0
 546 328 530 328 516 327 c 0
 489 327 466 327 441 330 c 0
 423 332 396 333 360 331 c 0
 294 328 254 322 226 307 c 0
 217 302 206 292 201 284 c 0
 190 265 186 241 186 205 c 0
 186 169 190 145 201 126 c 0
 206 118 217 108 226 103 c 0
 254 88 294 81 360 78 c 0
 389 77 467 77 494 78 c 0
 571 82 615 94 641 120 c 0
 651 130 657 139 662 153 c 0
 673 183 675 210 675 298 c 0
EndSplineSet
EndChar

StartChar: ccedilla
Encoding: 231 231 98
Width: 859
VWidth: 910
Flags: HW
LayerCount: 2
Fore
SplineSet
370 619 m 0
 385 620 535 619 551 618 c 0
 612 614 658 608 683 598 c 0
 727 581 755 543 758 502 c 0
 759 487 755 478 746 469 c 0
 738 460 729 456 717 456 c 0
 704 456 695 460 687 468 c 0
 680 476 675 487 675 496 c 0
 675 504 668 514 657 519 c 0
 641 526 600 532 543 535 c 0
 513 537 371 537 351 535 c 0
 287 530 250 518 224 493 c 0
 198 468 185 435 180 375 c 0
 178 355 178 259 180 240 c 0
 185 179 198 146 224 121 c 0
 250 96 287 84 351 79 c 0
 371 77 513 77 543 79 c 0
 600 82 641 89 657 96 c 0
 668 101 675 110 675 118 c 0
 675 127 680 139 687 147 c 0
 695 155 704 158 717 158 c 0
 729 158 738 155 746 146 c 0
 755 137 759 127 758 112 c 0
 756 87 745 64 727 46 c 0
 710 29 691 17 664 11 c 0
 636 4 598 -2 552 -4 c 0
 544 -4 536 -5 535 -5 c 2
 535 -5 536 -9 536 -13 c 0
 541 -41 534 -73 518 -96 c 0
 504 -116 484 -130 459 -136 c 0
 445 -140 428 -140 421 -138 c 0
 408 -135 397 -127 392 -115 c 0
 389 -110 390 -108 390 -97 c 0
 390 -87 389 -86 392 -81 c 0
 398 -66 415 -56 430 -56 c 0
 446 -56 454 -47 454 -31 c 0
 454 -22 452 -16 447 -11 c 0
 442 -6 439 -5 396 -5 c 0
 375 -4 351 -5 345 -4 c 0
 267 2 215 20 174 55 c 0
 138 86 113 131 103 188 c 0
 97 223 96 237 96 308 c 0
 96 378 97 392 103 427 c 0
 115 494 144 541 194 574 c 0
 236 602 288 615 370 619 c 0
EndSplineSet
EndChar

StartChar: odieresis
Encoding: 246 246 99
Width: 961
VWidth: 910
Flags: HW
LayerCount: 2
Fore
SplineSet
413 747 m 0
 435 752 457 739 462 716 c 0
 469 691 449 665 422 665 c 0
 396 665 376 691 382 716 c 0
 387 731 398 743 413 747 c 0
529 747 m 0
 551 752 573 739 578 716 c 0
 585 691 565 665 539 665 c 0
 512 665 492 691 498 716 c 0
 503 731 514 743 529 747 c 0
407 619 m 0
 426 620 571 619 585 618 c 0
 683 612 743 597 792 563 c 0
 853 522 884 455 889 351 c 0
 890 328 890 286 889 264 c 0
 882 129 832 55 726 20 c 0
 688 7 646 0 583 -4 c 0
 558 -6 403 -6 378 -4 c 0
 279 2 219 18 169 52 c 0
 108 93 77 159 72 264 c 0
 71 286 71 328 72 351 c 0
 79 485 129 559 235 594 c 0
 280 609 330 616 407 619 c 0
558 536 m 0
 530 537 428 537 400 536 c 0
 328 533 281 525 244 509 c 0
 184 484 160 440 155 344 c 0
 154 322 154 292 155 271 c 0
 159 202 171 161 198 134 c 0
 229 104 284 85 366 80 c 0
 420 76 541 76 596 80 c 0
 646 84 686 92 718 106 c 0
 765 126 790 158 800 217 c 0
 809 266 809 349 800 399 c 0
 794 435 782 461 763 481 c 0
 732 511 677 529 596 534 c 0
 588 535 571 535 558 536 c 0
EndSplineSet
EndChar

StartChar: udieresis
Encoding: 252 252 100
Width: 859
VWidth: 910
Flags: HW
LayerCount: 2
Fore
SplineSet
362 747 m 0
 384 752 406 739 411 716 c 0
 418 691 398 665 371 665 c 0
 345 665 325 691 331 716 c 0
 336 731 347 743 362 747 c 0
478 747 m 0
 500 752 522 739 527 716 c 0
 534 691 514 665 487 665 c 0
 461 665 441 691 447 716 c 0
 452 731 463 743 478 747 c 0
133 613 m 0
 154 619 176 607 183 585 c 0
 184 582 185 531 185 414 c 0
 186 233 185 236 190 204 c 0
 195 168 208 139 228 121 c 0
 254 96 291 84 353 79 c 0
 375 77 496 77 521 79 c 0
 543 80 567 83 581 86 c 0
 612 91 637 101 649 111 c 0
 661 123 670 143 674 168 c 0
 675 174 674 221 675 380 c 2
 676 583 l 1
 678 587 l 2
 683 601 692 610 707 613 c 0
 729 619 752 605 757 582 c 0
 758 576 758 39 757 33 c 0
 753 15 736 0 717 0 c 0
 702 0 686 9 680 24 c 0
 678 28 676 30 676 30 c 2
 675 29 670 28 664 25 c 0
 629 10 587 0 525 -4 c 0
 500 -6 370 -6 349 -4 c 0
 271 1 220 19 179 54 c 0
 140 87 117 132 107 197 c 0
 102 229 103 226 102 407 c 0
 102 530 102 578 103 582 c 0
 106 597 118 609 133 613 c 0
EndSplineSet
EndChar

StartChar: degree
Encoding: 176 176 101
Width: 708
VWidth: 910
Flags: HW
LayerCount: 2
Fore
SplineSet
276 818 m 0
 303 819 403 819 429 818 c 0
 485 816 522 810 556 799 c 0
 571 794 590 785 600 778 c 0
 636 752 657 705 657 651 c 0
 657 595 636 548 600 522 c 0
 579 507 543 493 500 488 c 0
 464 483 428 481 354 481 c 0
 280 481 244 483 208 488 c 0
 165 493 129 507 108 522 c 0
 72 548 51 595 51 651 c 0
 51 705 72 752 108 778 c 0
 140 802 198 814 276 818 c 0
424 735 m 0
 398 736 308 736 281 735 c 0
 224 732 180 726 160 714 c 0
 142 702 131 673 135 639 c 0
 136 625 138 616 143 606 c 0
 149 592 158 586 176 580 c 0
 211 568 256 563 354 563 c 0
 452 563 497 568 532 580 c 0
 550 586 559 592 565 606 c 0
 570 616 572 625 573 639 c 0
 576 666 570 691 557 705 c 0
 552 711 545 715 532 720 c 0
 507 729 475 733 424 735 c 0
EndSplineSet
EndChar

StartChar: grave
Encoding: 96 96 102
Width: 253
VWidth: 910
Flags: HW
LayerCount: 2
Fore
SplineSet
127 819 m 0
 132 820 157 819 163 818 c 0
 205 809 236 782 251 740 c 0
 264 706 269 662 269 595 c 0
 269 569 269 565 264 556 c 0
 260 548 254 543 245 538 c 0
 239 535 237 535 228 535 c 0
 218 535 217 535 211 538 c 0
 202 543 196 548 192 556 c 0
 187 564 187 569 187 592 c 0
 187 633 184 674 179 694 c 0
 173 719 165 730 150 735 c 0
 145 737 143 737 134 736 c 0
 121 736 116 737 107 742 c 0
 99 746 93 753 89 761 c 0
 86 766 86 767 86 778 c 0
 86 788 86 790 89 795 c 0
 95 810 109 817 127 819 c 0
EndSplineSet
EndChar

StartChar: quotesingle
Encoding: 39 39 103
Width: 202
VWidth: 910
Flags: HW
LayerCount: 2
Fore
SplineSet
91 817 m 0
 114 823 137 809 142 786 c 0
 143 780 143 573 142 567 c 0
 140 560 135 550 130 545 c 0
 127 543 122 540 118 538 c 0
 112 535 111 535 102 535 c 0
 92 535 91 535 85 538 c 0
 81 540 76 543 73 545 c 0
 68 550 63 560 61 567 c 0
 60 571 60 603 60 677 c 0
 60 769 60 782 62 787 c 0
 66 802 76 813 91 817 c 0
EndSplineSet
EndChar

StartChar: Aring
Encoding: 197 197 104
Width: 961
VWidth: 910
Flags: HW
LayerCount: 2
Fore
SplineSet
446 1110 m 0
 451 1110 468 1111 485 1111 c 0
 519 1110 526 1110 542 1105 c 0
 579 1095 598 1066 603 1020 c 0
 604 1006 604 968 603 954 c 0
 600 926 593 904 578 889 c 0
 567 879 557 873 542 869 c 0
 525 864 519 864 481 864 c 0
 443 864 437 864 420 869 c 0
 388 878 368 899 360 934 c 0
 357 948 357 962 357 988 c 0
 357 1023 360 1041 366 1058 c 0
 373 1075 387 1091 405 1100 c 0
 414 1105 431 1108 446 1110 c 0
511 1065 m 0
 499 1066 461 1066 450 1065 c 0
 421 1062 409 1052 404 1027 c 0
 402 1014 402 961 404 948 c 0
 410 916 425 908 481 908 c 0
 537 908 551 916 557 948 c 0
 559 961 559 1014 557 1027 c 0
 552 1053 541 1062 511 1065 c 0
441 818 m 0
 447 819 514 819 520 818 c 0
 527 815 535 811 540 806 c 0
 545 801 553 784 714 428 c 0
 807 223 883 54 884 52 c 0
 886 46 885 35 883 29 c 0
 877 8 855 -4 834 2 c 0
 821 5 812 11 806 25 c 0
 804 30 776 89 746 156 c 2
 692 277 l 1
 481 277 l 1
 269 277 l 1
 215 156 l 2
 185 89 158 30 156 25 c 0
 150 11 140 5 127 2 c 0
 106 -4 84 8 78 29 c 0
 76 35 75 46 77 52 c 0
 78 54 155 223 248 428 c 0
 409 784 416 801 421 806 c 0
 426 811 434 815 441 818 c 0
568 549 m 0
 487 727 483 736 481 736 c 0
 479 736 474 727 393 549 c 0
 347 446 308 360 308 360 c 2
 308 359 375 360 481 360 c 0
 587 360 654 359 654 360 c 2
 654 360 614 446 568 549 c 0
EndSplineSet
EndChar

StartChar: AE
Encoding: 198 198 105
Width: 1163
VWidth: 910
Flags: HW
LayerCount: 2
Fore
SplineSet
542 818 m 0
 546 819 598 819 799 819 c 0
 1071 819 1055 820 1065 815 c 0
 1094 800 1094 756 1065 741 c 0
 1055 736 1068 736 837 736 c 2
 624 736 l 1
 624 594 l 1
 624 451 l 1
 812 451 l 2
 1018 451 1005 451 1015 446 c 0
 1025 441 1034 429 1036 417 c 0
 1039 401 1030 381 1015 374 c 0
 1005 369 1018 369 812 369 c 2
 624 369 l 1
 624 226 l 1
 624 83 l 1
 837 83 l 2
 1068 83 1055 83 1065 78 c 0
 1094 63 1094 20 1065 5 c 0
 1055 0 1071 0 814 0 c 0
 616 0 577 0 572 1 c 0
 560 5 549 14 544 25 c 2
 542 31 l 1
 541 154 l 1
 541 277 l 1
 422 277 l 1
 305 277 l 1
 228 147 l 2
 169 46 151 16 147 12 c 0
 122 -13 76 5 76 42 c 0
 76 47 77 50 78 55 c 0
 82 63 516 800 522 806 c 0
 527 811 535 815 542 818 c 0
541 518 m 1
 541 675 l 2
 540 675 355 361 354 360 c 0
 354 359 396 360 447 360 c 2
 541 360 l 1
 541 518 l 1
EndSplineSet
EndChar

StartChar: Oslash
Encoding: 216 216 106
Width: 1163
VWidth: 910
Flags: HW
LayerCount: 2
Fore
SplineSet
485 824 m 0
 518 825 642 825 675 824 c 0
 750 821 805 815 854 803 c 0
 878 797 911 785 927 776 c 2
 932 773 l 1
 955 793 l 2
 977 812 982 815 991 818 c 0
 1008 823 1029 813 1037 796 c 0
 1043 783 1043 772 1038 759 c 0
 1034 752 1031 750 1015 735 c 2
 1002 725 l 1
 1009 716 l 2
 1049 672 1073 618 1084 543 c 0
 1090 504 1091 480 1091 410 c 0
 1091 340 1090 315 1084 276 c 0
 1067 163 1021 92 936 47 c 0
 880 19 811 2 719 -3 c 0
 658 -7 505 -7 445 -3 c 0
 394 0 347 7 310 16 c 0
 285 22 253 35 237 44 c 2
 231 46 l 1
 208 26 l 2
 186 7 181 4 173 1 c 0
 155 -4 135 6 127 23 c 0
 121 36 121 47 126 60 c 0
 130 67 132 69 148 84 c 2
 161 95 l 1
 154 103 l 2
 114 147 90 201 79 276 c 0
 73 315 72 340 72 410 c 0
 72 480 73 504 79 543 c 0
 96 656 142 727 228 772 c 0
 291 804 370 820 485 824 c 0
671 741 m 0
 638 742 523 742 490 741 c 0
 380 737 309 723 257 693 c 0
 216 669 190 637 174 588 c 0
 160 547 154 492 154 410 c 0
 154 275 171 204 217 157 c 2
 224 150 l 1
 543 431 l 2
 719 585 863 713 862 713 c 0
 861 714 839 721 827 724 c 0
 785 734 740 739 671 741 c 0
959 647 m 0
 956 651 952 657 947 662 c 2
 939 669 l 1
 620 388 l 2
 444 234 300 106 301 106 c 0
 302 105 324 99 336 96 c 0
 368 89 405 83 450 80 c 0
 509 76 655 76 714 80 c 0
 800 85 862 101 907 127 c 0
 948 151 973 182 989 231 c 0
 1003 272 1009 328 1009 410 c 0
 1009 532 994 600 959 647 c 0
EndSplineSet
EndChar

StartChar: aring
Encoding: 229 229 107
Width: 859
VWidth: 910
Flags: HW
LayerCount: 2
Fore
SplineSet
395 906 m 0
 400 906 417 907 434 907 c 0
 468 906 475 905 491 900 c 0
 528 890 548 862 553 816 c 0
 554 802 554 763 553 749 c 0
 550 721 542 699 527 684 c 0
 516 674 506 668 491 664 c 0
 474 659 468 659 430 659 c 0
 392 659 386 659 369 664 c 0
 337 673 317 694 309 729 c 0
 306 743 306 757 306 783 c 0
 306 818 309 836 315 853 c 0
 322 870 336 886 354 895 c 0
 363 900 380 904 395 906 c 0
460 860 m 0
 448 861 410 861 399 860 c 0
 370 857 358 847 353 822 c 0
 351 809 351 756 353 743 c 0
 359 711 374 704 430 704 c 0
 486 704 500 711 506 743 c 0
 508 756 508 809 506 822 c 0
 501 848 490 857 460 860 c 0
340 619 m 0
 366 620 518 619 533 618 c 0
 599 613 644 604 678 588 c 0
 684 584 693 579 698 576 c 0
 721 560 740 532 749 503 c 0
 751 497 754 489 755 484 c 2
 758 476 l 1
 758 258 l 2
 758 97 758 38 757 34 c 0
 755 26 751 18 746 12 c 0
 722 -12 681 2 676 35 c 1
 674 41 l 1
 669 37 l 2
 644 21 608 8 568 2 c 0
 534 -3 498 -5 428 -5 c 0
 343 -5 299 -3 259 5 c 0
 205 16 168 36 145 64 c 0
 116 99 102 145 102 205 c 0
 102 248 109 283 123 313 c 0
 139 346 160 367 193 382 c 0
 233 402 280 411 356 414 c 0
 385 415 433 415 440 414 c 0
 472 409 524 408 560 413 c 0
 595 417 639 428 654 436 c 0
 661 440 669 447 673 454 c 0
 675 458 675 459 674 465 c 0
 669 488 658 505 643 513 c 0
 622 524 583 531 526 535 c 0
 501 537 340 537 310 535 c 0
 246 532 211 527 196 519 c 0
 189 516 185 512 185 509 c 0
 185 507 184 504 183 501 c 0
 176 469 138 459 114 482 c 0
 106 490 101 501 102 516 c 0
 104 541 118 567 142 583 c 0
 151 589 166 597 178 602 c 0
 208 612 263 617 340 619 c 0
675 298 m 0
 675 329 675 354 674 354 c 2
 674 354 667 352 658 349 c 0
 624 339 591 333 551 329 c 0
 546 328 530 328 516 327 c 0
 489 327 466 327 441 330 c 0
 423 332 396 333 360 331 c 0
 294 328 254 322 226 307 c 0
 217 302 206 292 201 284 c 0
 190 265 186 241 186 205 c 0
 186 169 190 145 201 126 c 0
 206 118 217 108 226 103 c 0
 254 88 294 81 360 78 c 0
 389 77 467 77 494 78 c 0
 571 82 615 94 641 120 c 0
 651 130 657 139 662 153 c 0
 673 183 675 210 675 298 c 0
EndSplineSet
EndChar

StartChar: ae
Encoding: 230 230 108
Width: 961
VWidth: 910
Flags: HW
LayerCount: 2
Fore
SplineSet
221 613 m 0
 245 614 328 614 346 613 c 0
 417 609 463 593 489 561 c 2
 494 553 l 1
 503 563 l 2
 531 590 569 607 624 613 c 0
 643 615 698 615 718 613 c 0
 768 607 804 593 832 568 c 0
 856 548 874 516 885 477 c 0
 891 455 896 424 898 398 c 0
 901 365 902 295 900 286 c 0
 896 271 885 259 870 254 c 0
 865 253 834 253 694 253 c 2
 522 253 l 1
 523 243 l 2
 526 176 534 141 551 116 c 0
 565 96 586 84 624 79 c 0
 648 76 723 77 755 80 c 0
 777 82 800 87 806 92 c 0
 813 97 816 106 818 121 c 0
 819 133 821 141 826 147 c 0
 832 155 843 161 854 163 c 0
 870 166 890 156 897 141 c 0
 901 133 901 127 901 115 c 0
 898 69 874 30 836 14 c 0
 801 -1 753 -6 670 -5 c 0
 628 -4 613 -4 590 1 c 0
 549 10 516 28 494 53 c 2
 489 59 l 1
 482 51 l 2
 463 29 431 9 400 -1 c 0
 365 -13 329 -14 294 -7 c 0
 287 -6 280 -5 260 -5 c 0
 245 -4 230 -5 225 -4 c 0
 169 1 129 18 102 46 c 0
 84 63 71 86 64 112 c 0
 58 137 55 162 55 205 c 0
 55 248 58 273 64 298 c 0
 69 316 77 334 87 348 c 0
 93 358 108 373 119 380 c 0
 135 392 160 402 185 407 c 0
 209 412 227 414 265 415 c 0
 293 415 295 415 304 413 c 0
 340 406 385 411 420 427 c 0
 430 432 434 436 437 448 c 0
 441 460 437 486 430 500 c 0
 425 512 413 519 392 524 c 0
 370 529 343 532 287 532 c 0
 219 532 179 529 158 522 c 0
 149 519 144 515 144 510 c 0
 142 496 141 493 138 488 c 0
 133 478 123 470 111 467 c 0
 89 461 66 475 61 499 c 0
 60 502 60 507 60 512 c 0
 63 547 86 582 119 596 c 0
 142 605 177 611 221 613 c 0
697 531 m 0
 683 532 657 532 642 531 c 0
 606 528 578 520 563 505 c 0
 539 484 527 438 524 369 c 0
 523 362 523 351 522 346 c 2
 522 336 l 1
 671 336 l 1
 818 336 l 1
 818 346 l 2
 817 351 817 362 816 369 c 0
 814 428 804 470 786 495 c 0
 771 516 744 527 697 531 c 0
440 281 m 0
 440 316 439 345 439 345 c 1
 430 341 l 2
 399 331 365 326 333 327 c 0
 315 328 306 328 294 331 c 0
 288 332 282 332 263 332 c 0
 227 331 207 328 189 322 c 0
 176 318 167 313 160 306 c 0
 150 296 145 283 141 264 c 0
 136 235 136 175 141 146 c 0
 146 113 160 96 189 87 c 0
 209 81 227 78 268 77 c 0
 293 77 297 78 305 75 c 0
 324 71 338 70 354 73 c 0
 377 76 400 87 416 102 c 0
 428 113 434 129 438 155 c 0
 439 164 441 206 441 217 c 0
 441 218 441 246 440 281 c 0
EndSplineSet
EndChar

StartChar: oslash
Encoding: 248 248 109
Width: 961
VWidth: 910
Flags: HW
LayerCount: 2
Fore
SplineSet
407 619 m 0
 426 620 571 619 585 618 c 0
 654 613 700 605 740 590 c 0
 748 586 749 586 751 587 c 0
 752 588 758 593 764 598 c 0
 779 611 786 614 798 614 c 0
 818 614 835 600 839 580 c 0
 842 567 836 552 827 543 c 2
 822 539 l 1
 829 531 l 2
 865 489 884 431 889 351 c 0
 890 328 890 286 889 264 c 0
 882 129 832 55 726 20 c 0
 688 7 646 0 583 -4 c 0
 558 -6 403 -6 378 -4 c 0
 309 1 262 10 221 25 c 0
 213 29 212 28 210 27 c 0
 209 26 204 21 198 16 c 0
 183 3 175 0 163 0 c 0
 143 0 126 15 122 35 c 0
 119 48 125 62 134 71 c 2
 139 76 l 1
 132 84 l 2
 96 126 77 183 72 264 c 0
 71 286 71 328 72 351 c 0
 79 485 129 559 235 594 c 0
 280 609 330 616 407 619 c 0
581 535 m 0
 562 536 425 537 400 536 c 0
 327 533 281 525 244 509 c 0
 184 484 160 440 155 344 c 0
 153 311 153 270 157 241 c 0
 162 193 176 159 197 136 c 2
 204 129 l 1
 439 326 l 2
 612 472 674 523 673 523 c 0
 671 524 648 529 633 531 c 0
 618 533 605 533 581 535 c 0
775 466 m 0
 773 470 768 475 765 479 c 2
 758 485 l 1
 522 289 l 2
 349 143 288 91 289 91 c 0
 291 90 314 86 329 84 c 0
 364 79 387 78 461 77 c 0
 559 76 606 79 651 86 c 0
 676 91 698 98 718 106 c 0
 765 126 790 158 800 217 c 0
 809 266 809 349 800 399 c 0
 795 426 788 448 775 466 c 0
EndSplineSet
EndChar
